<mxfile host="Electron" modified="2024-07-11T17:30:01.823Z" agent="Mozilla/5.0 (Windows NT 10.0; Win64; x64) AppleWebKit/537.36 (KHTML, like Gecko) draw.io/24.5.3 Chrome/124.0.6367.207 Electron/30.0.6 Safari/537.36" etag="XktBJH3o9F8yOFXSDaSU" version="24.5.3" type="device">
  <diagram name="Pagina-1" id="CNss6lHrRbNn9Tft9Z3P">
    <mxGraphModel dx="1304" dy="767" grid="0" gridSize="10" guides="1" tooltips="1" connect="1" arrows="1" fold="1" page="1" pageScale="1" pageWidth="827" pageHeight="1169" math="0" shadow="0">
      <root>
        <mxCell id="0" />
        <mxCell id="1" parent="0" />
        <mxCell id="x1jIhV6qrmOZlEyX5eO0-10" style="edgeStyle=orthogonalEdgeStyle;rounded=0;orthogonalLoop=1;jettySize=auto;html=1;exitX=1;exitY=0.5;exitDx=0;exitDy=0;entryX=0;entryY=0.5;entryDx=0;entryDy=0;" edge="1" parent="1" source="x1jIhV6qrmOZlEyX5eO0-1" target="x1jIhV6qrmOZlEyX5eO0-2">
          <mxGeometry relative="1" as="geometry" />
        </mxCell>
        <mxCell id="x1jIhV6qrmOZlEyX5eO0-1" value="Cruise 1&lt;div&gt;&lt;br&gt;&lt;/div&gt;&lt;div&gt;q1&lt;/div&gt;" style="ellipse;whiteSpace=wrap;html=1;aspect=fixed;" vertex="1" parent="1">
          <mxGeometry x="60" y="180" width="110" height="110" as="geometry" />
        </mxCell>
        <mxCell id="x1jIhV6qrmOZlEyX5eO0-11" style="edgeStyle=orthogonalEdgeStyle;rounded=0;orthogonalLoop=1;jettySize=auto;html=1;exitX=1;exitY=0.5;exitDx=0;exitDy=0;entryX=0;entryY=0.5;entryDx=0;entryDy=0;" edge="1" parent="1" source="x1jIhV6qrmOZlEyX5eO0-2" target="x1jIhV6qrmOZlEyX5eO0-3">
          <mxGeometry relative="1" as="geometry" />
        </mxCell>
        <mxCell id="x1jIhV6qrmOZlEyX5eO0-2" value="Half-circle&lt;div&gt;&lt;br&gt;&lt;/div&gt;&lt;div&gt;q2&lt;/div&gt;" style="ellipse;whiteSpace=wrap;html=1;aspect=fixed;" vertex="1" parent="1">
          <mxGeometry x="347" y="180" width="110" height="110" as="geometry" />
        </mxCell>
        <mxCell id="x1jIhV6qrmOZlEyX5eO0-3" value="Cruise 2&lt;div&gt;&lt;br&gt;&lt;/div&gt;&lt;div&gt;q3&lt;/div&gt;" style="ellipse;whiteSpace=wrap;html=1;aspect=fixed;" vertex="1" parent="1">
          <mxGeometry x="650" y="180" width="110" height="110" as="geometry" />
        </mxCell>
        <mxCell id="x1jIhV6qrmOZlEyX5eO0-12" value="" style="shape=image;verticalLabelPosition=bottom;labelBackgroundColor=default;verticalAlign=top;aspect=fixed;imageAspect=0;image=data:image/png,iVBORw0KGgoAAAANSUhEUgAAAR0AAABuCAYAAAAaq8egAAAaAElEQVR4Ae1d3UsjyRa//1GekrxMyMPMwGUWBudB8jBkYUFhwQuLgUUfhrnDgiIEEUcuEWZBHBBcFBeFlTwIwopgyICYASWwGBh0QCYw0CAYEH6X6u7qrnQ6/VH9kW49A4NJurs+fnX6V6fOOXXqX6B/hAAhQAjEiMC/YqyLqiIECAFCAEQ6JASEACEQKwJEOrHCTZURAoQAkQ7JACFACMSKAJFOrHBTZYQAIUCkQzJACBACsSJApBMr3FQZIUAIEOmQDBAChECsCBDpxAo3VUYIEAJEOiQDhAAhECsCRDqxwk2VEQKEAJEOyQAhQAjEigCRTqxwU2WEACFApEMyQAgQArEiQKQTK9xUGSFACBDpkAwQAoRArAjEQzpfDzA3nsPcoRJr56yVdesVFMbncdy1XqHvhEAECNxeYG0yh9LHywgK915k0uQ+etL5uo+Z5zlMrF2g5x2niO68Q3utjML4Oxx+jagKKpYQYAjcnqH2OofSbwe4vh81JMmS+2hJRyWcDErvzxJAOHzg79B6P4b8+CKao1W8eIPo70NDQCecQmUnAYTDwU2O3EdHOrdnWB7PIFnA6wNwf4XdSk4lntYtHxT6SwiEgECSZSshbYuGdHjnilPYTeoy5usOposJJcUQZJ+KGAUCujaRHcPy6d0oGuBeZwLkPgLS4cDnUD1OKPD60CgHsyhkM5j4Y7SGPndJoTvSgMD13lQq5GnUch866fROF1HKZlBYOEqQHWeYyCo4fJNDPjuG2udkE+SwHtDvCUFA1yDyP22iM3LDsRsmo5X7cEnntoHllxnki7M4/O7W8YRcv9nBdDaD/PgKWqN3ryUEFGqGLwSYOeGXjDp5rbV9PTm6m0co9yGSzh2aSy+QT+Fypb02pra7tHYxOiGgmlOLwPWfU6r8pEO7N2EeldyHRzrtD+qyKv9yMX0aw+0RqkU2U5Wx1TEHhT4RAq4IfD/AW1V2prB743p3sm4YkdyHRDrfdPUyg5l6OoNfOn+UtdnqzQHS2YNkyfPjaA1zmmja/avf06klj0LuQyEdZjx+xewixXk002oX+b6PGdaH7AusnT+OV4Z6GRABbhdhGvKXgGWN6vERyH0IpGNqORPbV6OCLoR679CsMk9WBvnZfdJ2QkD0YRdhajmFaiMFntphoxG/3AcnnfMPmpaTlV/TKp0Gdj+uYHlpEbXtI3SE9U33ZBO1hXlUVzdx/CVit7bRlxTPXMNki34PFwFDQ8hh+VSyaOUSzb111JYWsczkWxT8mwa2VudRXVjB1t9X0ZJazHIfkHQCsuT9NxwvlVB4Ponqxx0c19cxM55B/nkF9a+Kukeq8Podtv4+wu5SGYXI42musPUTW2JlkNY1uqT402M+Ebje1myA+Zcf0JaIy+keL6JcfIKphXXs/r2PjV+ZB/UJZv66gsJi3YolzG0f4XhvERPFDEqrUe5fjFfug5GOwfYZvD0Q1BNPA6hFLg/szfq0qC1xijkUeKCVmhpDI4P8+zNPpcveZAhTmu1Tsp2n57whcH+BNRaPxiYniTALNYCWbRES7UD3DSyrNsUcCkXdi3p/hcPftHCOfHYRLW+tk7orTrkPRDpKvaIRRHYWvlPlMBd7cR7H1g2XpzrpZHOonmjLqfaa5iGQHWRfo9DZRFkdfBki9VUT3ZxWBIzlyAv4DgZkhDVut0XoTCedDAwbUZubLjJQNaoo8YpR7gOQjoL6rK59+Da8sjDsDMo2e57YvhDVmCsQmXL4Ds/Y1orXK4h+V/gltn7U+0Xu8yjFPLVlt3/XJ0GJpZUq3z9uYiAcTDnAW+tk9/0Ac8+ZV7iEWuQbSOOTe3nSEZZW03vffArQHa4/N9AZ2Cpxh+MF/YX/ZQejSvBnalYSGpxPJOj2lCEgLK0KEkv93tczNP8ZNEX0juf1yVbeIRMUybjkXpp0TI1EQsUcio65VrbTgoY+FvYFblfKZhK/Uz7srlN5LggISx7/dszhZRsvvJ0WNPyxcK/EJPeSpCNoJNlFNCWs97ZoGevKAG5I24J9/iioujKzmc/a6PYUIdD5o6RrJJMh5ooylzYjlbeY5F6SdEyNJF/ZD20ZZGpP8zj2FNl8h059ETO/zmPrk7bEU9r72FiYxdvVfbQHtViP4m0KQX6UM4/H1tJtcSGg2SJVm2NxJTxvkvCye81B1f20jre/zqJWv9RieFhcz9Is3i5soim9ByweuZcjna87mNKNXjIuQ1VElEu0ThpoG4YbQXuys+coR6j+Z6UvrzEjqentS3QP36lpBebmKphYOsL190vU3zw1vQASMtlc0m1L2SnUjTZKFESPGAj0FAW9sLRio1TLh54CxeoRtdwi/dVwa2eQl3Uy3CvonDbQbJt2UGd7joLj6iRqn4QZtP0BE0sNdM/XUc7mMD33DhOzm2jfXKG1WgbL6XMt2ck45F6KdEyQJG0etw1UmVWeERfXlO7PsKzu1rWPfVDd831gXmHrZ32vl74W5akFjJiDAInErv+c1NXoDJY/SY5gGh67v4PyXfH235P2ad/p670Kno0vunsfe1donzTQdPk/6ITQ62XJtJ6X+l9S+yb5/9VY/tt7Xt0LZMG0TwyDMZ/MWu/17TfMG2YtRHXYiBHyrIxJba8Xn/z1eLbeiW6MDqCdxyH3UqRjGL2yJalUECJp8RmDAcZShzIiGvCGqcnBLNn9ugeo/k/b86K1x2xLr3OAjdVNNINoKEa8kKyAWaUnmd/NseSancvf4lNM/He9P2TfpWtqGk8P+bJ7/2yqeau1kAmndpgxXHZVa9krw89TbC7/JSfb3hGquozneUhIr6GnVckgP6Dhazmq+qORL7DxZkfVZHh7jCXZ9zNsra6j/k+A7UIxyL0E6QjrWg6c3cg7/fZ5RSWYV292NLuL0sDyeA7Ts1qOWa6xqEXcHGH59ROUh4aB6xtOw1xjs4r5LMKEJIDG5ARDIq7d6lrOTQM1Hp+UzeFt/apP+7k+b6D59w5qb0r65JBDeekIXZflkkYAdsFwlt7f7GP6h0msnej1nqzg1dKR1obzdUz8doAu18g8aFxqYi0PRGdpheNXk6BlPbZnqDFt/uUsdpnB8V5B8/0YCpWKRrZisKy+ReiZQ2yapiGFvPyPQe4lSEcwIku/6N/08O4nKP1YwoviE8xsM4PYHTrbFS0Q8IcSyq+fosD2oOzpxjI7keCzR9jEwMtlpBNAXbVrcjJ/E8Y162zI55nymEbimG1RT19b8GD/aG+8Q104OYS94NwlzTRj37ZDNfKXpaGV2xs1OEbiZCv/ojP7I8sh/my8hPIPOTyb3UTnFmBa3owaCPgUZfWdyKE8t6NeG2wL+0U3+oYtmzHIvX/SERs1oA7awzPs157yDZ3zS3Sthr/eN9XY1up8czc8ni6qM+/AkmxYpZ5/F1/CEMMCPNcf843iDMftbMOaYOSRYUug4QSlpcMck9sq8NIMkmMEJDO+jKzYkl3m2cGuC56doPugegq6nQt0bizLoPs7dDtnaJ7avBPWBuljEL6LPXq59086onCGrV1YgfXwXYubMO05Hh7xeIuZJygfIG2Hx8pGfhu3DzDtxTUws490THLo6wSPWPe9RQYAm0iMGfwb6hVJ4uDRw2Fs3hU9V0bb+noc6xduFzXsOaHVHr3c+ycdwdAU9Y5vdxw1gcwXF9FysS24lzV4h+k+zKH2efD6Q/rF8KCwzIkDLpT+nnKB1wy+9ltFuAfRf/patozJCcsp7SVwJcL+JhrfuB3GfzuMIrQPItEG1PAtJUt9ba0yj9cQwpcq0Xwoarn3TTqiwE39OepMgdrOXGNXrolbKJ9a700PinSiplBaEnUh4tJh+HKJt8IkqAzs7TVcRa+gPrC/jpcy5O+XTUxkxYh0feb1YBeyLZFvW5DRuMQCBXd5fqkhXhnBZx2TvhCS8JoRtdz7Jp3unnbcBpvlwlkrBwMryoAzM+Q9GX0NhpTD0+Is7vZy82UTM7CzZGt20a/8BZVYhmg7uEXi4+q+BIGxLhvLInuNzAGV/kuJ0vABMK+jBy9efye8fYta7n2Tjhg8NP2XGVXprTvpuitpBBsVeqL26riMUc6wNqkFsrGMjoeCt0lsW/cvfWLyvQvbXnPVlkhj2PhHrMXrZ30Jng0Y5ClshiysRptIzmvPorovarn3TTpRq15RASlTrgi+48soU3iCnjGXS09RO7FGJzNP4hF230/hBYsxUdNonjnG53CbgIwmbKu5sqhpq4fTB35cZoOMoSgLMv3y0dyR3yr2NQhmwzpCpDMMGQAi+GEYzXtfzlzD+93C/8XrLTGRt0M/nC+J9hzThqUZicXvY6jWL6G4Guz5cigjn7DcucG+rxrjGMAWY5SRELOCbxB8PCD2NQy5t1ZNpGNFRPguLjuCg3+H1tqkGvjFgr9C+V89Cn5Ujps9p3eF5ipLiu81gx1Pu5kcj58RDhDA6yS+iA9d0wlX7oUXSv9IpDOIiflL0oyHZstC+yQK2HBV2jwtwP30A0460bhzpTrOx5FIxxt8HC820fi2y7lXQaTjhFHE4DtVHdc1057jHJ/D7SLqCahOcTxGbhh/pDO4nBOXdvafPWNkjKP8iQqPSdNhwZnGeBDpeBazcG6MGPxwGhmkFB5Pw15q0U1tLVPcd+RiqzGWa/5Ix1pjqN+NcSTS8YSrgRdpOp7wCvMmcXaLQs0Ms61SZRkEIeQ1sitIyHXkHgWb4OWVXb4au/7a/CbKwkO36Yh9jULuaXllI2D8JxH8UGIzbi4S5b0yDKxu+614VC9b47tmUuSkE2YOYT4ikn95jA3ZdDwBGLrcW2r1TTp8Lwtb84W/2czSuhF/FcEPPrslz3vF42nyWWdPk4jDwEmTAzE05pItyNYRpXOErdUV1FZXsLFnd1yRd+Ew2u8Wbe1QpGeCdigjLZcMvCIKD/BNOlE3KEkD87D7apKDsz3HEq9kSevAti30a4FmBDDPh+NrTNXkVWVMzG3i+KShnuU9paa2HcPcgdxePx7W399OX61Sd75HaVz12ZpIb49a7ol0HIbP9Ng8EK2uy5d3R9hd0mNv2JLp5RRqe0fa0k9IGM6hEVPJ9hEUy0fMz93mNwPg2vBwF7xws+UjE/jS+zPthAN+Ta2HLe0kcvPATPgvRYK8DREbV3k1Sfgbtdz7Jh3RnRZo5kgCui5tEMEPslRwqSa2y52PY6YrVLXPDLqi7Xfs36G1aqYpZVrI7t4ipp7nML03qH0YsT++lzNcS8rBuq+PH+Vr3z4nCHnEdcCcS16N7k5NScm1qOXeP+mIRsUIfPjJGRf+ArAXM0FG0REC1Pt6gfq2ZmepsQTgww4W47E6vvMcmZhbJzRD5fdrDOZkEcBzpULO+8TI2m8bRjhm/qs2xyAqufdPOnwQHzz4V9j9mWsCAdMi+B/5lD+hoD7LsHMOOLTtJDs07uPgQYlGdgO3VKqWQrkB2HeOZUs5APfKsX7Jx/sMFJu4H6KXe/+kI4IfdPZIHOBigwQhk05AL5b3uD5zO9Cr3y9C6DgnsQz8ZQDkz4nnRsk2x9zIahwfI1tUop+LXu4lSEcE/wEnLO/uY5rbPXzOromWqbgax09jCCM/cfuDeoJCobKDa9dd7kIHda2870gj4bLfj6at4wEvt2OQewnSAcz4jgcMvmC7stoX/ArrY72fGZQDn8Zwe4bl8QwKkx/Q9pVT5w6t9y+0PMJDko35HRdjiRc0IZjfiuO8Pwa5lyIdIzNcSOB3TzZRW1rEMjuV0y79JQf95gLh5JDhBQ7/y20BLDYjkKt1eBWP4Ip2QmVePETOT6/vr7BbMc+G8vMoOizXcgbTYebx1g+JZDIRRn5wpb2PDVXuHYzyrNPKJVrnV+7HMfkCyP7mOOReinQgsGEw8DVX7LPXs9io76D6kuVsmbLPu6sm7GZGvHg2EvJYk7zk0cn2Q/oIf+Waiu/jipimMoZStf8U0Z5iOSvKDlJGVr9k4Hs5ZleW+JvowQqQEIwVef1XBc+eT2J5bx9rvzC5thybzesVjh2OI2wjDrmXIx3xwD3fwsTRBBirFn5aR0ddp5u2IrstB4bLNBuHHUl0G8ZRn4nJg/ykEo99TI99f+/Q+aOCCetR0uyld7WvaWQVOuGoDeUxPwFPfWU2Kqb9KVrvDVuRXQiKfphkVO7rfvzjkXs50oFJEGpSp/6We/umHoT2Amvn+u0CkQ1qT0JqBd8BZ96a03eXcYJABvk46uur/IF+ub3Axq8V7Hbc+3e9V8HU2kV/VDKA3skinrkkRe+dfsD0woE/g7N7k4w7zPxDsmEUmkfN9MIJRGajPRmaRxye4pjkXpJ0AL6fRXa5o7pUhSNKuIs1n7VxbwqpFWRC6w2J8fpBWD7aaV1ei6H7/CPQO11UPVXGPifuQdT/jno8jGjrvrO5fPRTNRMIuYsMs0EO1RPr0lGY3AOsKDy3Lia5lyYd0a4jZWhl+4D+0fVLYX+MbbSnAYbzbmjP4LrcaC7lAobOu9RDl60ICC+ZhWw4CcVh17C2qu+7YNeRCji8vULr85WhxRmTt130tlCXdVtIX5tC+hKX3MuTDj8nmglHUBYWwDXVThNJ01UpzBDm5ZA/CUu5OFTakFtPxUWNAA84DGjXUZtp7vS3DaLkeYBicWbEJ/fypMN2E//O4iCYxynYWeKmm87OMyWAEceeF8G2JDWTRS3zVP7IEVDqFX3jrJ28+mieoMHbaXCGPSfg++WpRTHKfSDSwfkHvFLVYMEg7KmH4k1m6gHbpZVg3Oqz59xeov6+gpmFTTS77PhYBe36Oqr/nUWtfuHhfCaxDeZnR9uSeRt9eswICEcr22nmXqFxXFpB2APVt5K4Q6e+iJlf57H1STthV433WZjF29XBPWte2xKn3AcjHZhHkxTs3H2eeiyomGs2+3RsZwOm/Uxhq/MNh79lkB9/h7nZMpb/voLS2cfbf9sZ5bw05g7NqnZsbj6iw+m9tILuSToCgpxIa9+CBm/nIRVMDqLxnK0Kprcv0T18p8b2zM1VMLF0hOvvl6i/eQr/qT8Y1kJ/YpD7gKQDGKqm9B4bc4OZCC4XO9O4JdhzvmxiqtpQjXHaloycnjrVJEGpVKqCihlkBuNtp78PGAFDy7fxtnrqtmA0t5uwjfgc0Zlxha2f59HsAdDtPXxf2fV2WVvy9WlFnhoCxCz3gUkHQsSk3ItqajoD8Tl6NKtqNxJmlO7hPGqfmHtRf9Zwvd+hc7CO2nbD8aztYUNhECgzIPvZWDisQPr9ASNgTnC2RmDXnguajjU+R9/+MWAv7R6g+j9tstXsPSYh9ToH2GDbiJipwee/uOU+OOmAxezoLCupmhnP/yLsIr5poDapL3WGnVbAdxG7BIx5GwNTiCa2B7PheSuD7npMCPANrWxvmap9+Oy88fzLRTT5ZlblAru/CRkebTUXXUsKJeVK/HIfCung9gjVop60iUcY+xkANRm3ng7z+RjKr5+iUCxhrlrBC9VQbR+fwwO1pJZSlvaxoDTVKP5yES2mvtI/QsANgftLbP3E5N5vnh9e8B062xU8Uz3AT1H+cQzPsk8wtTSPKVXuMwNpW9Un+XLIlpB42d7+jkLuwyEdUduZ3QcP+fPWbeGuWwXX5w00z6+g9ABjnTpkJtFC0gO6LdXq+fp6MDev0Dr6SAgMIGBqKwGW5D0F3c4ZmqeX6N6y7R5aShDb6HzWAt3eY2cDHWig4w+jkfvQSAc8aVP2BZZPreHcQ3quu7lrH/fR4eolv1WYRezXzPqeFcOewx/0/9dg+5829c2n/sugJx4rAsw2o5kB/JCAms7F1gbDQkh0s8KQCVxztZv2HFnkRyX34ZEO25DH9814fHnba+ba1Rrmre5AV9XOWRx+t4FVz3Am76rXyzTITeZ4E5t20U+PDwF+RI7HvEGGbGczljPDWMStliVx+HE7+k7woAGDI5T7UEmH+ftZDhR2YqSVRAYlkat2Wi6RtbZwBx/E7NhwrUk9h0g2HsesiyUkY9ntStY0CuYt9IkQcEXges+7HBmpLLK5/gRxhrfWKQ2IFmIiF49jdmOUch8y6QDgwBWHaChGv3lAUhlrn00rkNLexAw70bFYwvKxFnFpPCJ+YMfZfve4jBOfEz/f7GOaGcDHA6zHxfLo8+NFwHBzu2vMmq3yKd7WBS/pzRGWX7Nl1RPMbF8aG0LtAO0pSrAsgiOW+/BJh6GkayoFt4RLt2eoMaCLzHJfQnn8iQr6xMImWhLxBnYDNPQ3LiTFKeyGlEN3aF104XEgwCfc8RVnD+j9FeqzmqyXmNwzb202hxeVDzj+EnAidUM6AXIfDekY9h0nNdFEp3dzidZJA63Ot2AMbhbp+klThx2Wb64l0A2EgA0C+oQ7cDSyza095QrtE9Nba3NL6D8lQe4jIx2GVhI6aDdqmsHbGyHaPU+/EQJOCCRVvpLSrkhJhxmW22tlFJK0hFFnoly4pwQ4SSBde5QIXB+8Q8nJERI3KgmS+4hJhyGrE8/4OxyO2nby9QBz4zlM/+FsqItbHqi+h4mASjzFMtbOI7bTuMGXMLmPgXQ0RLrnDbS+jhb83pczNNsOHjG3waPrhIBPBBQWaWyk5fX5cEi3J03uYyOdkPCjYggBQiDlCBDppHwAqfmEQNoQINJJ24hRewmBlCNApJPyAaTmEwJpQ4BIJ20jRu0lBFKOAJFOygeQmk8IpA0BIp20jRi1lxBIOQJEOikfQGo+IZA2BIh00jZi1F5CIOUIEOmkfACp+YRA2hAg0knbiFF7CYGUI0Ckk/IBpOYTAmlDgEgnbSNG7SUEUo4AkU7KB5CaTwikDQEinbSNGLWXEEg5AkQ6KR9Aaj4hkDYEiHTSNmLUXkIg5QgQ6aR8AKn5hEDaEPg/OxWsDopORSgAAAAASUVORK5CYII=;fontStyle=0" vertex="1" parent="1">
          <mxGeometry x="180" y="310" width="129.54" height="50" as="geometry" />
        </mxCell>
        <mxCell id="x1jIhV6qrmOZlEyX5eO0-16" value="" style="shape=image;verticalLabelPosition=bottom;labelBackgroundColor=default;verticalAlign=top;aspect=fixed;imageAspect=0;image=data:image/png,iVBORw0KGgoAAAANSUhEUgAAAGMAAAArCAYAAABsMDaUAAAEFklEQVR4Ae1aQUvjQBT2H/UUe7H0sJ72sOiheJAKCxYWXBA9S5U9iFDKUnuI4KEgCF0qhe5Beij0IIKlgkTBUpAtiBVEYSFQaKDwLZO22iYz6WTssEGmENq8ee/Nm+/Lm3kz6QzUJzAIzAQmEhUIFBkBeggUGYqMACEQoFBUZigyAoRAgEJRmaHICBACAQpFZYYiI0AICIRitmooHWWhH2ShHxVRb5kCXtwmKjPcmLAlnQaOv88hrM1hdTvdJ2MvgXkthEgii/oL25SnRZHBgxLR6TVwvDyLsLaAzKUjE+6L2IiGEI6lcd3hdejWU2S4MaFKWr/iCJMMSNVgUTTaJ/32xX2D2k4xcYkUGS5IKAKrhhR58rUQMpeUdiJq5RHXiM4myn8ZOhPEiowJAJFm62IXERvoJRRaDAOzgqStE0Ky4pjGGCZOsSLDiQjlvpn7bGdFWFtD6YmiYIsMZAZkhH/WWEqeci4yLPMBzYsa6hMvAy2RFO110b4VtPUc3jQaTVS3+lMUNxnfimgLdO1NRucPClufBik6DGjC93oR/io8E9UfpFwkfheg33QFhiHT5Bml9eGYOTNDS+NaICQ2GR0Dul3KDQPx/p6PLSG+kkCq+uwzjJH0JoTsG+P2vWfOrOTJXKLTwEtvvAvvOwP6YPHmzozpktHF+d4sIss7KN2OL0ZmeRPhaFaIefqgyTRA6ndC9hxSF47MeDpFcoUQPa0rgcIdPRK6dPRh4c2MNZT9TQ9219TMsM53EaFuYAbz51YF4xTRh8Et7ZloXdXQfHQQwe1ApqIYGeyFnh0rlQxYJkzazmZQvi3mGmyPH66lgdyX4RTNmxlp1H1NhX3Q6GQwACUZQ6aT1HkQn2BG0O8WB2EBdw2ii3qKzO0JlB5djR9YIFDaruTB2ht6AcWfGT0DGbuqEEtBryA82wbryeQ9jqxqCuDa9PVqb5u+vTOh8yl+Mq7S/f2G732EJ9STG/97NQVgOHZtFvoNI+SnIjYGO/CN337L+75PbjKGT0fkwLEPYMTmS3x/Bn17E8mjms89gK9exJVHDgqZ507NQyzaZMRRuBfripOMt4qCGYxY/wDefJPiYPXkQdiTTMNmbsEuXlhH6K3jpX674BRFYucj4/V42OPUUhiJ0To+BCmZJxzbiKFlQI+REtf9csm6y/dfLkXXUGYeJI74YvzkImNY0oZjh2gK1M+Mvl/F7coO4tEQ5r+mURc5aHz1JPnHyxky9hER5bXr8g6q76wyuciAfT5kYErv3SUjJtm9fcJ8igL5M4J95VG+FVuwnZHykeG0UvdSEFBkSIFVzKkiQww3KVaKDCmwijlVZIjhJsVKkSEFVjGnigwx3KRYKTKkwCrmVJEhhpsUK0WGFFjFnCoyxHCTYvUP0843wUNzbHwAAAAASUVORK5CYII=;" vertex="1" parent="1">
          <mxGeometry x="210" y="280" width="52.95" height="23" as="geometry" />
        </mxCell>
        <mxCell id="x1jIhV6qrmOZlEyX5eO0-18" value="" style="shape=image;verticalLabelPosition=bottom;labelBackgroundColor=default;verticalAlign=top;aspect=fixed;imageAspect=0;image=data:image/png,iVBORw0KGgoAAAANSUhEUgAAAFsAAAAoCAYAAACRgIb2AAAD90lEQVRoBe2ZwUsiURzH9z+a08xcFA/ZpSDYg3gIg6BgwWCxkwdpO0UgHmoPCQbSIQhcXAo2PAhCISQuiB6KuSiECYuC8CBwYOC7jOY4O6a+N84+NCYQZ6b33u/3+8zvvd/3PT/B/eNG4BM3S64huLA5JoEL24XNkQBHUx8qszuVLM6SeXQ4AmQxtfywNYLGXQqRdQnyagjxmzpUFgIc2y4vbI1AySUQXhUgr+7iJPcEonEkZ8PU8sFWm6j9OMLOqgDvehjpu/rCQx6+l+WBTeoonoex5hPg3z5CptIexrA034sPu/uE3Oku/KIA/14CuUeyNHCtjlLDVkkTykMJ5ZmfKhpdqxn2e7VVwuW3EPyihLX9FIoNTpC1HjqNKkWcIxY1St9mw36tIxNbgVcUINN+vmZtyy/SuEd6X7cnIRS7QLnVY39TNnt0fqcGBZc2TqPdIQoUuTAd9msVZ5sSNWR/IIjQ1i7iBfb1lCi3ONnzQBY9CJ/eQnFgdrAwf8kfImjAo00sD4JbQYTPq1RycwrsHorHErybh7i2rJMktw/Z9x01lmimtm2jENNBryCcvMcLb6HcyiIiSthJltAx5CNBLiog/LNpeE7yUchfsngxnrBdTIStFo/gDSRQe7UOSFCICZBjeVDMHGvnqffk8S27fSuIcMvuJjLbEiI3I6h9J0keB+Ia0srI5dqpBPn4niqLR71GVxNhQyUg72VY3wkBn9NPo1Ecvhqt2x7sHF+h9sdhA5bh1O54XejPXjGBspHpdWS2BHiTVUtv+tvJsCeMoWe8XijjxXEHJ3Sx/disSPgWy8ES8s/sVe8RFwVEbtjr0RAAI+weynG9YO7iujUcgsO3obU5ycDnK+xYwTauELI+YwydDbZWxYlPr9Tm6cVocZ7mnHaRyvkaZDGITMPkbCXRn9HzLJ9ssCuJgd6eQ0eb3Ld/aT4f2Yzi8qEJ1Vhb7Q/b76mWENcTyqK2OjfhgQT+LwXyHZ+VtP7G5ysS7wxr/5Hp5M+pQ6lBYRTGVIcBeyMFk0Bh8p0hs5+Q3hiI/YO806KPyefxxqYzbe96yr7+10YxjgmAt2VkbHkZ92biE3rYbwViHmMTvXDqH1oPhNhXSf29RX8XGR3ffhvx25e91LCHkk8OpKA4tT46BdmhcWrJwdGEN156Z+NSx2VAn9kSIr/syT9q2NDaUB6qoDzgcih8zsPoMVam/BjRraPxbH/m0MPmHPdHNOfC5vhWFwR2G7ko/VHu1HP1wAXMexGOLGeaWhDYAF4JSNeBzxxqZCatORssDuw5A1mG7i5sjm/Jhe3C5kiAoyk3s13YHAlwNOVmtgubIwGOptzMdmFzJMDR1F/Dj+sHc4MZqQAAAABJRU5ErkJggg==;" vertex="1" parent="1">
          <mxGeometry x="379.25" y="225" width="45.5" height="20" as="geometry" />
        </mxCell>
        <mxCell id="x1jIhV6qrmOZlEyX5eO0-23" value="" style="shape=image;verticalLabelPosition=bottom;labelBackgroundColor=default;verticalAlign=top;aspect=fixed;imageAspect=0;image=data:image/png,iVBORw0KGgoAAAANSUhEUgAAAR0AAABuCAYAAAAaq8egAAAaAElEQVR4Ae1d3UsjyRa//1GekrxMyMPMwGUWBudB8jBkYUFhwQuLgUUfhrnDgiIEEUcuEWZBHBBcFBeFlTwIwopgyICYASWwGBh0QCYw0CAYEH6X6u7qrnQ6/VH9kW49A4NJurs+fnX6V6fOOXXqX6B/hAAhQAjEiMC/YqyLqiIECAFCAEQ6JASEACEQKwJEOrHCTZURAoQAkQ7JACFACMSKAJFOrHBTZYQAIUCkQzJACBACsSJApBMr3FQZIUAIEOmQDBAChECsCBDpxAo3VUYIEAJEOiQDhAAhECsCRDqxwk2VEQKEAJEOyQAhQAjEigCRTqxwU2WEACFApEMyQAgQArEiQKQTK9xUGSFACBDpkAwQAoRArAjEQzpfDzA3nsPcoRJr56yVdesVFMbncdy1XqHvhEAECNxeYG0yh9LHywgK915k0uQ+etL5uo+Z5zlMrF2g5x2niO68Q3utjML4Oxx+jagKKpYQYAjcnqH2OofSbwe4vh81JMmS+2hJRyWcDErvzxJAOHzg79B6P4b8+CKao1W8eIPo70NDQCecQmUnAYTDwU2O3EdHOrdnWB7PIFnA6wNwf4XdSk4lntYtHxT6SwiEgECSZSshbYuGdHjnilPYTeoy5usOposJJcUQZJ+KGAUCujaRHcPy6d0oGuBeZwLkPgLS4cDnUD1OKPD60CgHsyhkM5j4Y7SGPndJoTvSgMD13lQq5GnUch866fROF1HKZlBYOEqQHWeYyCo4fJNDPjuG2udkE+SwHtDvCUFA1yDyP22iM3LDsRsmo5X7cEnntoHllxnki7M4/O7W8YRcv9nBdDaD/PgKWqN3ryUEFGqGLwSYOeGXjDp5rbV9PTm6m0co9yGSzh2aSy+QT+Fypb02pra7tHYxOiGgmlOLwPWfU6r8pEO7N2EeldyHRzrtD+qyKv9yMX0aw+0RqkU2U5Wx1TEHhT4RAq4IfD/AW1V2prB743p3sm4YkdyHRDrfdPUyg5l6OoNfOn+UtdnqzQHS2YNkyfPjaA1zmmja/avf06klj0LuQyEdZjx+xewixXk002oX+b6PGdaH7AusnT+OV4Z6GRABbhdhGvKXgGWN6vERyH0IpGNqORPbV6OCLoR679CsMk9WBvnZfdJ2QkD0YRdhajmFaiMFntphoxG/3AcnnfMPmpaTlV/TKp0Gdj+uYHlpEbXtI3SE9U33ZBO1hXlUVzdx/CVit7bRlxTPXMNki34PFwFDQ8hh+VSyaOUSzb111JYWsczkWxT8mwa2VudRXVjB1t9X0ZJazHIfkHQCsuT9NxwvlVB4Ponqxx0c19cxM55B/nkF9a+Kukeq8Podtv4+wu5SGYXI42musPUTW2JlkNY1uqT402M+Ebje1myA+Zcf0JaIy+keL6JcfIKphXXs/r2PjV+ZB/UJZv66gsJi3YolzG0f4XhvERPFDEqrUe5fjFfug5GOwfYZvD0Q1BNPA6hFLg/szfq0qC1xijkUeKCVmhpDI4P8+zNPpcveZAhTmu1Tsp2n57whcH+BNRaPxiYniTALNYCWbRES7UD3DSyrNsUcCkXdi3p/hcPftHCOfHYRLW+tk7orTrkPRDpKvaIRRHYWvlPlMBd7cR7H1g2XpzrpZHOonmjLqfaa5iGQHWRfo9DZRFkdfBki9VUT3ZxWBIzlyAv4DgZkhDVut0XoTCedDAwbUZubLjJQNaoo8YpR7gOQjoL6rK59+Da8sjDsDMo2e57YvhDVmCsQmXL4Ds/Y1orXK4h+V/gltn7U+0Xu8yjFPLVlt3/XJ0GJpZUq3z9uYiAcTDnAW+tk9/0Ac8+ZV7iEWuQbSOOTe3nSEZZW03vffArQHa4/N9AZ2Cpxh+MF/YX/ZQejSvBnalYSGpxPJOj2lCEgLK0KEkv93tczNP8ZNEX0juf1yVbeIRMUybjkXpp0TI1EQsUcio65VrbTgoY+FvYFblfKZhK/Uz7srlN5LggISx7/dszhZRsvvJ0WNPyxcK/EJPeSpCNoJNlFNCWs97ZoGevKAG5I24J9/iioujKzmc/a6PYUIdD5o6RrJJMh5ooylzYjlbeY5F6SdEyNJF/ZD20ZZGpP8zj2FNl8h059ETO/zmPrk7bEU9r72FiYxdvVfbQHtViP4m0KQX6UM4/H1tJtcSGg2SJVm2NxJTxvkvCye81B1f20jre/zqJWv9RieFhcz9Is3i5soim9ByweuZcjna87mNKNXjIuQ1VElEu0ThpoG4YbQXuys+coR6j+Z6UvrzEjqentS3QP36lpBebmKphYOsL190vU3zw1vQASMtlc0m1L2SnUjTZKFESPGAj0FAW9sLRio1TLh54CxeoRtdwi/dVwa2eQl3Uy3CvonDbQbJt2UGd7joLj6iRqn4QZtP0BE0sNdM/XUc7mMD33DhOzm2jfXKG1WgbL6XMt2ck45F6KdEyQJG0etw1UmVWeERfXlO7PsKzu1rWPfVDd831gXmHrZ32vl74W5akFjJiDAInErv+c1NXoDJY/SY5gGh67v4PyXfH235P2ad/p670Kno0vunsfe1donzTQdPk/6ITQ62XJtJ6X+l9S+yb5/9VY/tt7Xt0LZMG0TwyDMZ/MWu/17TfMG2YtRHXYiBHyrIxJba8Xn/z1eLbeiW6MDqCdxyH3UqRjGL2yJalUECJp8RmDAcZShzIiGvCGqcnBLNn9ugeo/k/b86K1x2xLr3OAjdVNNINoKEa8kKyAWaUnmd/NseSancvf4lNM/He9P2TfpWtqGk8P+bJ7/2yqeau1kAmndpgxXHZVa9krw89TbC7/JSfb3hGquozneUhIr6GnVckgP6Dhazmq+qORL7DxZkfVZHh7jCXZ9zNsra6j/k+A7UIxyL0E6QjrWg6c3cg7/fZ5RSWYV292NLuL0sDyeA7Ts1qOWa6xqEXcHGH59ROUh4aB6xtOw1xjs4r5LMKEJIDG5ARDIq7d6lrOTQM1Hp+UzeFt/apP+7k+b6D59w5qb0r65JBDeekIXZflkkYAdsFwlt7f7GP6h0msnej1nqzg1dKR1obzdUz8doAu18g8aFxqYi0PRGdpheNXk6BlPbZnqDFt/uUsdpnB8V5B8/0YCpWKRrZisKy+ReiZQ2yapiGFvPyPQe4lSEcwIku/6N/08O4nKP1YwoviE8xsM4PYHTrbFS0Q8IcSyq+fosD2oOzpxjI7keCzR9jEwMtlpBNAXbVrcjJ/E8Y162zI55nymEbimG1RT19b8GD/aG+8Q104OYS94NwlzTRj37ZDNfKXpaGV2xs1OEbiZCv/ojP7I8sh/my8hPIPOTyb3UTnFmBa3owaCPgUZfWdyKE8t6NeG2wL+0U3+oYtmzHIvX/SERs1oA7awzPs157yDZ3zS3Sthr/eN9XY1up8czc8ni6qM+/AkmxYpZ5/F1/CEMMCPNcf843iDMftbMOaYOSRYUug4QSlpcMck9sq8NIMkmMEJDO+jKzYkl3m2cGuC56doPugegq6nQt0bizLoPs7dDtnaJ7avBPWBuljEL6LPXq59086onCGrV1YgfXwXYubMO05Hh7xeIuZJygfIG2Hx8pGfhu3DzDtxTUws490THLo6wSPWPe9RQYAm0iMGfwb6hVJ4uDRw2Fs3hU9V0bb+noc6xduFzXsOaHVHr3c+ycdwdAU9Y5vdxw1gcwXF9FysS24lzV4h+k+zKH2efD6Q/rF8KCwzIkDLpT+nnKB1wy+9ltFuAfRf/patozJCcsp7SVwJcL+JhrfuB3GfzuMIrQPItEG1PAtJUt9ba0yj9cQwpcq0Xwoarn3TTqiwE39OepMgdrOXGNXrolbKJ9a700PinSiplBaEnUh4tJh+HKJt8IkqAzs7TVcRa+gPrC/jpcy5O+XTUxkxYh0feb1YBeyLZFvW5DRuMQCBXd5fqkhXhnBZx2TvhCS8JoRtdz7Jp3unnbcBpvlwlkrBwMryoAzM+Q9GX0NhpTD0+Is7vZy82UTM7CzZGt20a/8BZVYhmg7uEXi4+q+BIGxLhvLInuNzAGV/kuJ0vABMK+jBy9efye8fYta7n2Tjhg8NP2XGVXprTvpuitpBBsVeqL26riMUc6wNqkFsrGMjoeCt0lsW/cvfWLyvQvbXnPVlkhj2PhHrMXrZ30Jng0Y5ClshiysRptIzmvPorovarn3TTpRq15RASlTrgi+48soU3iCnjGXS09RO7FGJzNP4hF230/hBYsxUdNonjnG53CbgIwmbKu5sqhpq4fTB35cZoOMoSgLMv3y0dyR3yr2NQhmwzpCpDMMGQAi+GEYzXtfzlzD+93C/8XrLTGRt0M/nC+J9hzThqUZicXvY6jWL6G4Guz5cigjn7DcucG+rxrjGMAWY5SRELOCbxB8PCD2NQy5t1ZNpGNFRPguLjuCg3+H1tqkGvjFgr9C+V89Cn5Ujps9p3eF5ipLiu81gx1Pu5kcj58RDhDA6yS+iA9d0wlX7oUXSv9IpDOIiflL0oyHZstC+yQK2HBV2jwtwP30A0460bhzpTrOx5FIxxt8HC820fi2y7lXQaTjhFHE4DtVHdc1057jHJ/D7SLqCahOcTxGbhh/pDO4nBOXdvafPWNkjKP8iQqPSdNhwZnGeBDpeBazcG6MGPxwGhmkFB5Pw15q0U1tLVPcd+RiqzGWa/5Ix1pjqN+NcSTS8YSrgRdpOp7wCvMmcXaLQs0Ms61SZRkEIeQ1sitIyHXkHgWb4OWVXb4au/7a/CbKwkO36Yh9jULuaXllI2D8JxH8UGIzbi4S5b0yDKxu+614VC9b47tmUuSkE2YOYT4ikn95jA3ZdDwBGLrcW2r1TTp8Lwtb84W/2czSuhF/FcEPPrslz3vF42nyWWdPk4jDwEmTAzE05pItyNYRpXOErdUV1FZXsLFnd1yRd+Ew2u8Wbe1QpGeCdigjLZcMvCIKD/BNOlE3KEkD87D7apKDsz3HEq9kSevAti30a4FmBDDPh+NrTNXkVWVMzG3i+KShnuU9paa2HcPcgdxePx7W399OX61Sd75HaVz12ZpIb49a7ol0HIbP9Ng8EK2uy5d3R9hd0mNv2JLp5RRqe0fa0k9IGM6hEVPJ9hEUy0fMz93mNwPg2vBwF7xws+UjE/jS+zPthAN+Ta2HLe0kcvPATPgvRYK8DREbV3k1Sfgbtdz7Jh3RnRZo5kgCui5tEMEPslRwqSa2y52PY6YrVLXPDLqi7Xfs36G1aqYpZVrI7t4ipp7nML03qH0YsT++lzNcS8rBuq+PH+Vr3z4nCHnEdcCcS16N7k5NScm1qOXeP+mIRsUIfPjJGRf+ArAXM0FG0REC1Pt6gfq2ZmepsQTgww4W47E6vvMcmZhbJzRD5fdrDOZkEcBzpULO+8TI2m8bRjhm/qs2xyAqufdPOnwQHzz4V9j9mWsCAdMi+B/5lD+hoD7LsHMOOLTtJDs07uPgQYlGdgO3VKqWQrkB2HeOZUs5APfKsX7Jx/sMFJu4H6KXe/+kI4IfdPZIHOBigwQhk05AL5b3uD5zO9Cr3y9C6DgnsQz8ZQDkz4nnRsk2x9zIahwfI1tUop+LXu4lSEcE/wEnLO/uY5rbPXzOromWqbgax09jCCM/cfuDeoJCobKDa9dd7kIHda2870gj4bLfj6at4wEvt2OQewnSAcz4jgcMvmC7stoX/ArrY72fGZQDn8Zwe4bl8QwKkx/Q9pVT5w6t9y+0PMJDko35HRdjiRc0IZjfiuO8Pwa5lyIdIzNcSOB3TzZRW1rEMjuV0y79JQf95gLh5JDhBQ7/y20BLDYjkKt1eBWP4Ip2QmVePETOT6/vr7BbMc+G8vMoOizXcgbTYebx1g+JZDIRRn5wpb2PDVXuHYzyrNPKJVrnV+7HMfkCyP7mOOReinQgsGEw8DVX7LPXs9io76D6kuVsmbLPu6sm7GZGvHg2EvJYk7zk0cn2Q/oIf+Waiu/jipimMoZStf8U0Z5iOSvKDlJGVr9k4Hs5ZleW+JvowQqQEIwVef1XBc+eT2J5bx9rvzC5thybzesVjh2OI2wjDrmXIx3xwD3fwsTRBBirFn5aR0ddp5u2IrstB4bLNBuHHUl0G8ZRn4nJg/ykEo99TI99f+/Q+aOCCetR0uyld7WvaWQVOuGoDeUxPwFPfWU2Kqb9KVrvDVuRXQiKfphkVO7rfvzjkXs50oFJEGpSp/6We/umHoT2Amvn+u0CkQ1qT0JqBd8BZ96a03eXcYJABvk46uur/IF+ub3Axq8V7Hbc+3e9V8HU2kV/VDKA3skinrkkRe+dfsD0woE/g7N7k4w7zPxDsmEUmkfN9MIJRGajPRmaRxye4pjkXpJ0AL6fRXa5o7pUhSNKuIs1n7VxbwqpFWRC6w2J8fpBWD7aaV1ei6H7/CPQO11UPVXGPifuQdT/jno8jGjrvrO5fPRTNRMIuYsMs0EO1RPr0lGY3AOsKDy3Lia5lyYd0a4jZWhl+4D+0fVLYX+MbbSnAYbzbmjP4LrcaC7lAobOu9RDl60ICC+ZhWw4CcVh17C2qu+7YNeRCji8vULr85WhxRmTt130tlCXdVtIX5tC+hKX3MuTDj8nmglHUBYWwDXVThNJ01UpzBDm5ZA/CUu5OFTakFtPxUWNAA84DGjXUZtp7vS3DaLkeYBicWbEJ/fypMN2E//O4iCYxynYWeKmm87OMyWAEceeF8G2JDWTRS3zVP7IEVDqFX3jrJ28+mieoMHbaXCGPSfg++WpRTHKfSDSwfkHvFLVYMEg7KmH4k1m6gHbpZVg3Oqz59xeov6+gpmFTTS77PhYBe36Oqr/nUWtfuHhfCaxDeZnR9uSeRt9eswICEcr22nmXqFxXFpB2APVt5K4Q6e+iJlf57H1STthV433WZjF29XBPWte2xKn3AcjHZhHkxTs3H2eeiyomGs2+3RsZwOm/Uxhq/MNh79lkB9/h7nZMpb/voLS2cfbf9sZ5bw05g7NqnZsbj6iw+m9tILuSToCgpxIa9+CBm/nIRVMDqLxnK0Kprcv0T18p8b2zM1VMLF0hOvvl6i/eQr/qT8Y1kJ/YpD7gKQDGKqm9B4bc4OZCC4XO9O4JdhzvmxiqtpQjXHaloycnjrVJEGpVKqCihlkBuNtp78PGAFDy7fxtnrqtmA0t5uwjfgc0Zlxha2f59HsAdDtPXxf2fV2WVvy9WlFnhoCxCz3gUkHQsSk3ItqajoD8Tl6NKtqNxJmlO7hPGqfmHtRf9Zwvd+hc7CO2nbD8aztYUNhECgzIPvZWDisQPr9ASNgTnC2RmDXnguajjU+R9/+MWAv7R6g+j9tstXsPSYh9ToH2GDbiJipwee/uOU+OOmAxezoLCupmhnP/yLsIr5poDapL3WGnVbAdxG7BIx5GwNTiCa2B7PheSuD7npMCPANrWxvmap9+Oy88fzLRTT5ZlblAru/CRkebTUXXUsKJeVK/HIfCung9gjVop60iUcY+xkANRm3ng7z+RjKr5+iUCxhrlrBC9VQbR+fwwO1pJZSlvaxoDTVKP5yES2mvtI/QsANgftLbP3E5N5vnh9e8B062xU8Uz3AT1H+cQzPsk8wtTSPKVXuMwNpW9Un+XLIlpB42d7+jkLuwyEdUduZ3QcP+fPWbeGuWwXX5w00z6+g9ABjnTpkJtFC0gO6LdXq+fp6MDev0Dr6SAgMIGBqKwGW5D0F3c4ZmqeX6N6y7R5aShDb6HzWAt3eY2cDHWig4w+jkfvQSAc8aVP2BZZPreHcQ3quu7lrH/fR4eolv1WYRezXzPqeFcOewx/0/9dg+5829c2n/sugJx4rAsw2o5kB/JCAms7F1gbDQkh0s8KQCVxztZv2HFnkRyX34ZEO25DH9814fHnba+ba1Rrmre5AV9XOWRx+t4FVz3Am76rXyzTITeZ4E5t20U+PDwF+RI7HvEGGbGczljPDWMStliVx+HE7+k7woAGDI5T7UEmH+ftZDhR2YqSVRAYlkat2Wi6RtbZwBx/E7NhwrUk9h0g2HsesiyUkY9ntStY0CuYt9IkQcEXges+7HBmpLLK5/gRxhrfWKQ2IFmIiF49jdmOUch8y6QDgwBWHaChGv3lAUhlrn00rkNLexAw70bFYwvKxFnFpPCJ+YMfZfve4jBOfEz/f7GOaGcDHA6zHxfLo8+NFwHBzu2vMmq3yKd7WBS/pzRGWX7Nl1RPMbF8aG0LtAO0pSrAsgiOW+/BJh6GkayoFt4RLt2eoMaCLzHJfQnn8iQr6xMImWhLxBnYDNPQ3LiTFKeyGlEN3aF104XEgwCfc8RVnD+j9FeqzmqyXmNwzb202hxeVDzj+EnAidUM6AXIfDekY9h0nNdFEp3dzidZJA63Ot2AMbhbp+klThx2Wb64l0A2EgA0C+oQ7cDSyza095QrtE9Nba3NL6D8lQe4jIx2GVhI6aDdqmsHbGyHaPU+/EQJOCCRVvpLSrkhJhxmW22tlFJK0hFFnoly4pwQ4SSBde5QIXB+8Q8nJERI3KgmS+4hJhyGrE8/4OxyO2nby9QBz4zlM/+FsqItbHqi+h4mASjzFMtbOI7bTuMGXMLmPgXQ0RLrnDbS+jhb83pczNNsOHjG3waPrhIBPBBQWaWyk5fX5cEi3J03uYyOdkPCjYggBQiDlCBDppHwAqfmEQNoQINJJ24hRewmBlCNApJPyAaTmEwJpQ4BIJ20jRu0lBFKOAJFOygeQmk8IpA0BIp20jRi1lxBIOQJEOikfQGo+IZA2BIh00jZi1F5CIOUIEOmkfACp+YRA2hAg0knbiFF7CYGUI0Ckk/IBpOYTAmlDgEgnbSNG7SUEUo4AkU7KB5CaTwikDQEinbSNGLWXEEg5AkQ6KR9Aaj4hkDYEiHTSNmLUXkIg5QgQ6aR8AKn5hEDaEPg/OxWsDopORSgAAAAASUVORK5CYII=;fontStyle=0" vertex="1" parent="1">
          <mxGeometry x="471.7" y="310" width="129.54" height="50" as="geometry" />
        </mxCell>
        <mxCell id="x1jIhV6qrmOZlEyX5eO0-24" value="" style="shape=image;verticalLabelPosition=bottom;labelBackgroundColor=default;verticalAlign=top;aspect=fixed;imageAspect=0;image=data:image/png,iVBORw0KGgoAAAANSUhEUgAAAF0AAAAjCAYAAAD2WQZyAAADC0lEQVRoBe2Yz2vaYBjH+x/lFHOZ9LDt0kNhB/FQFAYVBh6GO3mQ0tMoBA/bDhMseBoUBEeFQQ+CBxEqDiQeKl4UxBZGBSEgGBC+I4kmarR5k7z6VniFQHzyvs+PT573fZ43R+C/vRM42rtFbhAcOoMk4NA5dAYEGJjkmc6hMyDAwCTPdA6dAQEGJnmmc+gMCDAwyTOdQ2dAgIFJnukcOgMCDEy6ZrqmDtG9b6DpeinojxlEQMvkbIpRXyGI02bR7qu+rG+HPumhmHmLsChAIr0+lzDy5QbbSaO/eSTfe4jT4nGJqg/um6FPFPw8CxHDfheJIhZPQK4+e6KnDbxllttq85N5j5VLRC2IpODfIBqPInmtQPMUsTl4A/Qp6lchhM8ucfuw+hrVuy+Qjn+g7cOQc8oU7UICsbj+wihdcg2rHjutrkieSkiJIZznGhjNFk9U3KUFJH8PFwKolTSkTyU8WpJgNw7oWv0rwpEs2pN1xSqqGQFSpuItsHU1r+b/EMWPIaTKNlzDNbWCC/EEha7taPt7CNJVzVdW21rsOwd0aCrUTWvGcEbAh0LHnn3gd9p46ojAWM1iFk0r83soxgWEc4pjrF+BE/oWTfoK0AuqXHc6umXKAYrNrWVlNWs1yKKAVNlbvXopeELoUzRlvbAmcPv0kroDfza4wfk64P4NYuuygGGSQZ8p+HasV/blZRfQsj79X8dTX7yL7mU5iu71CSQximJ/SdrKGiuc5rZKBr2VNft1qn34K+helthCa0DWE2utOxuVk2brvNNCuuzI/L5b0DOAbjHZYIapyCyggqNLsaCf5rHU0ATylSDTOyicmoeGi4qnLjiQY3udPLNjdDQK8+3Fse0EcNAd+ryQ0DQawN+dTDXOJsapNO081lvx02uXXaEvWkUpkkfX6l13Ejszpe2c+ckjLDc2HIB6+BXRV3oIqT902kZX6Jg9o3uvwOcHNWYgPRnWY2z1oG5LqnEP/QG984k7dE/e88EkBDh0EkqUx3DolIGSqOPQSShRHsOhUwZKou4/cNsbM2uf47AAAAAASUVORK5CYII=;" vertex="1" parent="1">
          <mxGeometry x="500" y="280" width="53.14" height="20" as="geometry" />
        </mxCell>
        <mxCell id="x1jIhV6qrmOZlEyX5eO0-25" value="" style="shape=image;verticalLabelPosition=bottom;labelBackgroundColor=default;verticalAlign=top;aspect=fixed;imageAspect=0;image=data:image/png,iVBORw0KGgoAAAANSUhEUgAAAGIAAAAsCAYAAACe920SAAADEUlEQVR4Ae2Zz2saQRTH8x95anKpeGhzMRCaQ/BQFHroyVzMyZPNJV6CBOkhBwPirSIIFhr2IAQKgpKCaEFZKC6UWBCFwkJBYeFb1vVXws7ual7iKE+Q1X2zX2e+n30zb9Yd8EsKB3ak6AV3AgxCkpuAQTAISRyQpBucEQxCEgck6QZnhGcQQ2hKDre/PV+wVEMG4WaXMcSgdYP0yWvsvfIhXXe7YLU4g7DxTa9/wdVlHNFICMGAbwzAhMAgbMx6zlOD8hnCkY9IXH5GQWmjW0nNYHBGPKfzbtp1BuFm0cvEGcTL+Oz6KzKDGOl9aPUa7qpO7zYGhusw5W8gI4hBNYfEB6uUm1YSTsfY1778Rrv1UCoQxj1uz0PwT8o4J/PNmP8ghHAkDuWP2ygfxgeqU4YtH1N7D/VX+iYNCOMeStzKAv/7M5Ra+nw8Rh+Vi3dWeRdIofmkqagP5ZMJkO4dzXfmfV31kywgtHzYMvo4heY/m9HoZSTGmbKLq5828U0/JQWIXhGxickX1aHA0gbSkykr9m0L1oTHo5QBhHodtLLhMANVNO3MMsKHRHlh2no8oE39vn4QbWQPrWcsR9m22EY1g6NxRgSRVcXNNjaydhCDm8m05EP6h9hGLR+aLNZJ3I3E7bxEdK3hsjdZrnLajqpptj5EURKWgR0UIlbWhJyyxgsFcNVkb9Ns7heDGFWS1t5CVFHZK2/W2bVPTdChxM27PYhsy8Y7vYa0uYYEoigtuXGzUZP31PpBAFAzCJk75dMiugtVk64WcX7sw97+KQq/RGWtvN469uxvZ75OfS/O/p0znxi8PUmioEzXqQa6T1wTp/3w9A/dqJVDdN+8899Yu96D3fHn2HVtOx7qTd2YHhcywPlRjnjKnkp5PXoCMRYzhtB7HTSrDWg9HaOF7PD6Y9xO7IB3EGINjhA4wCAITKSQYBAULhJoMAgCEykkGASFiwQaDILARAoJBkHhIoEGgyAwkUKCQVC4SKDBIAhMpJBgEBQuEmgwCAITKSQYBIWLBBoMgsBECgkGQeEigcZ/lctiaeBlxMIAAAAASUVORK5CYII=;" vertex="1" parent="1">
          <mxGeometry x="210" y="190" width="42.32" height="19" as="geometry" />
        </mxCell>
        <mxCell id="x1jIhV6qrmOZlEyX5eO0-27" value="" style="shape=image;verticalLabelPosition=bottom;labelBackgroundColor=default;verticalAlign=top;aspect=fixed;imageAspect=0;image=data:image/png,iVBORw0KGgoAAAANSUhEUgAAAZcAAABBCAYAAAAddumLAAAYAUlEQVR4Ae1d3UsbSx9+/yOvojeKF1V46YHiuSi5EAsFAwcivBg4mItiywGlIEFSOShYEAXBEvGgcCQXglAJGHJATEEJHAwUFYoBYUEwEHheZndnd3azk/2Oif0Vivs5O/NkZp7f/L7mP6B/hAAhQAgQAoRAxAj8J+LyqDhCgBAgBAgBQgBELtQJCAFCgBAgBCJHgMglckipQEKAECAECAEiF+oDhAAhQAgQApEjQOQSOaRUICFACBAChACRC/UBQoAQIAQIgcgRIHKJHFIqkBAgBAgBQoDIhfoAIUAIEAKEQOQIELlEDikVSAgQAoQAIUDkQn2AECAECAFCIHIEiFwih5QKJAQIAUKAECByoT5ACBAChAAhEDkCRC6RQ0oFEgKEACFACBC5UB8gBJ4agfsrlHZXsLq2gtWtPVTqylPX6Gm+33rEzdkethkOaysoFC9x03yaqtBXwyNA5BIeQyqBEAiMQKOUw/TbDyh8LaPydQ/5mWEMJQaQ/OMIN63Axfbfiw9XKGQnkP58iMppGcWtLKZGBzA0OoWNi8f+aw/VmLIiUx8gBFwRaD1CUWKY4H7sYfZ1DtUHoQata+xnBjWC2bgUbjznw0dUP01g9uDa0sjmWQ7JBCOYLI7vLbfopA8QoJVLH/xIQavYVBQo90o8E2PQSvXbe0oZq5PDbRNfFM1o/J1WSWQkc4iGWODFOn5VJ9VFVH4KtdA5VtkqJTGB1W8iiSsoZtn1AUzvWolHhIuOnRFg47/pZ/Xb1OeLe5/vOX+eVi4SXPr38sM1Sp8zSI5rg3IoMYiXqR3U+7dFT1fzh3PkXw8g+ekccczxnFyGRldQFVvJVjSMXBJp7P8QbzzXY04uA5j9+87SyOonvR9/OrdcpxN3BG4O0hibXEHFowmvcfTBOm9kcijWPL7sUJ3wKxemMmDSsct/XwzqUFG65AGB2yMsvNYG40hqBaWf1TDsASrXR7h66u0O6n6kP9eChQdad6jsbrYP4Ns9pHVyKVqWNMK7z+xQqR1ie7eMhg3ryrLen9eIXPz/5Jq6cciuenUrqHmN6u4HTSWZGMT0xmUg4So8uXxbwYg6EHQJQ3K8dCoud91aF/x+46KMytkVFFsnDV5iv7yp4PgPTVc/FOeEKIXjEfXiJo6/Sx/oqxs3fzGV1QQ2at2vtlLMqKqgoewhgsuN3a935F9sXWLjFZtXXmLjIljpSmkTqwfnveF1dn+FysGm5hWoesOdo+5mS2pdoXRQRr0hmT9bj2jUT1A4lqgNmZD0vwGMZPZ8O4g0S4v63D6FQoBxHZ5cjJXLNWrb+qBgBPNqEfunl7jRVzTdWLkwNQMnuvkjl2GpXKH6rEjoHHmd2H/tpiGYde6LQ8PLKX8WbBLoqbfujzA/OoCRd0fdn9zZhMpWn6Np7N/2FCpdr4xylFXHcxi1ZLN+pPXN0ReY/XziPpnH0crWHUrLSbUtY6+TmHozgTFDCB/E1MIe6qJTh1gHQ0U6gJFfkpiaySLPXLWXs0i/SeKlaqsabFMnikWgtq6uQpJ+54VW2ZhTZg+s6kpL+ZKT8OQiFHzzV0qTuBID6OoEp9bhDsUMXz25SJyGRDSApZJEIhDa1R+HJrkE6Qh+2qic7dg6N8d9AM+BXGqfX4aSlv1gaX1WV2PE6n7L7Btp9Ly67XYPs6PRuWQr9RNsZF5gJDGM6Y87qHbNlsXmpUGMTOZQEr/JVKJrU4YwPDK5YvUa5B1DIBfm2ND+fxhzu1cuaqtHlD4yrYZfG164OSVCclFw/I43fvBJJpnmxQ7mf89i+x8Xlq3p3jiJJArPxtIdriPwvuzlLzP8Tb1JYX5ZD3Qr5YxO3/fk0ixjiUmDr9ZR67JqlRlgR8YzKPwbp8DD+onfScZLr4jwGdWRYhBTyydtNpjQX/lxjsLHKYwxR5fMeux2SXX1JXWl5pO+Nm86riyk5DKM5O/rqIiE1Qkc3QNxZKnsQkRiIeHmlOjIRVhCDSUWUYrDvUZsd4jj+pekNhmO5lDt8gQSotour4brCC6Fd7599nzIhU0GTDr89XN3Y0zUmI7XiyiJBvyHaFxCrT9ej5OL6kgxjNkvgjTOVO8ytZG1cd7P7i9R/JRS1VNjMzkUL1zU6N5LFp4UBO7xlLMg+30H08aKJItjezV0csmXFCjfL1HRTQ3+zQzcfpVB0c3OY7Qg3JwSHbkYq4EBDP1vz+q3b1S2Fw7uVAOXurx8Cp16bBCE6wihqhUHuTwEk96bAd/T2s8kSU2K7Ka6tPnvDube2tUibGKKQ33Vw+TCbBNLU5j722acZjaDuLzFlCuUPqdV28XY20UUzq79xYZ0HDimi7U633w8cVg1WJ9pW/lzconAllnbYOreAcwV7Qwma0S4OSUycmkcaAFhrPJTX65ktX36680TLOmSQty2ie42NlxHCFXXyMnlCtuT/l0gmYfXyPi6NWbEV8P4QO+i2uh2D3Mz66jZJfNmGflxW/yLr7bIHu5VcmH2phQWjmzEAuBmN93ZYC1rqp/rzWtU9JQzI7+ksfE1Co9TQZCVroatzyzYly4Rkgv+0TUMnoXqcHNKROQiLP8Sg1j95vKrNsooLGcx/3EFhVOrfaR5e479rRUs/Z7B0tom9t0kCTVWYAX55RxWHfzkWU0atbKar4jlLKr8tahFPydeYGHXvF4T1REu1e/N2+E6QvP2EkUjeeIhjNgphu/WutUYaQcgcnIBoMbsDGJqzUsA4yPqX9IYCethZcSX5HwRlFIvq31W64MnEMOLGqc7WP24iKW1HZS+21ZjepCmKtUaqhFut4xLAxAjuXgYi7zrNC6sbriqvckJA/1am0TPC4r6b+sO1YMc0iwIeTyFfPEyXFiDOtflkN86lHiEcXWV9ru3tTNKcmkc6sG5OVQ8mQPCzSnRkEvrHHnVJY4B5GJvUd08J7Cwe4gNNYfSoJZao3WN44Ukxn5JY2lrDyWWxC+lxW2MZW3pMXiH4oa/d5vY/5JVSaMtlQZMgKSDODEAV9dl/s2e/Wu209eK7OEK+wvMTXIY0+83UTw9QYGds4n6gqU+Yb+By28aB7kwnPWg0M6uqBERC/seb4dXtS53MR1PaX22uIk55kY8nkHxVlHzZY1MsqSUJ9hfZp5B1vQm4mrfsW/GEpUeE7k8nKtpcqbebaKoC3DtY1EbPDe7U5rN08DZ7LuOODyFA0JLQf3rOmZ/GcTQ+BSWDkKSjGze0MlDa3cHm8sZ0DjdxHyKebyxeZYZ9HPYP7MK57LPaNc5zl4dmfjzA/A1p+iViIZcRHuLPU+SpbWPqCwNgntFGINrNI25zHC7d4gB/EuHYDbNxW96W1fBGc+mOsQHmLmKhhz1n5bKyk9ad6ixVVBk/y/De8UIDhWeO4I6ITDymED+H1EP+4jKsqafVTu9MQlIIOGTciIGV+TbQ8yNy1KwREgsbIXLVbsd+zDHQHMbbgtO46qH0UGM8GBWIXPCUCyEwevk5W8c5MI0F4NoH4tO6kVBDbRc9lLhJ32m8c8m5v7L4o6S2P43+qoYRMsyYTvFoejzWvL1BEZSjEyutWwo38+xnWUZtP141ZnY5//x0pYeIBdjULrZW1R7h9nhxPecpVOhcbacQ2CudYK7aPOUR5N2MIJGZW/5cYj5NywYKqr/KRTCdlye7NBrNDNPb8I6tZPqqb6DKV0l4WpDi5Nc2BhwJBiBWAJEDzsNLaM/eiEAZmQeXUTJbisxsBgEz0rBDamMqLsf/2VvaQzkYh+LpUVtZZJwEPSUI8zr/apntQVsXxm2SmCrdrZq2T0PL/zZfwZ2/nCiub0zPF6voOrkYauTS5sQw94X4vUciantm6b5wpsAKgjjAbJFRLByMSvMWLSTvYWlExh6w5Momp45Q69yHYFlg9Kqi9RWQOakp52rUvbbHdy0gapfMFLVeF0WygrqseuNEyzpOcWcSbq9vvUvumoiIXFNNMjFQ8ySMaHaf6f27wa+YhBMGUoremJh9TJIwJVctD5v9j+zVdyVeShhqjiU4w+qy6s0UM58PdRR8/u5h9X0JuYSSeSL7ivvqmg8ktbM51g8y+lqnR4cgy0FtWKE9hYpZuyGEOPSMffXNY7X9todPvSyjT6b8JaihScC9UYuTLDTglnZ3G5xD+/YNu1meHLxY29pXKLyL1e/mIYsp0HKqqeSkSrlmKsd3iZmpDfy8gjSUCc3u2cV38KwPD3B/ifNjdKXXlhPb6KSsUQ9aEjxwiTJsW/72w1yYR/lBDOp24QiWrHw9vCB5666esTNN6H/8QLUCUM3yLupEo13ojp4RHUr5WE1zVKPDOLlpIdV99KJp/Q3lrHooh0wJkN7JuioYAhSDjPi7y5iepylWInKU6xzRbgDAxM4vGYtdirRnCO9rYq993Hha42ynt1gAGMziygwwYQ5WgmPOB2GJxfP9hbb5z1IxtVPmkHfXO3YytBPjUR/MilcfU5IDyOZUJ1L782rapT8pG7c+28K+b+9GxxN4pA5MgirSi+TZLfIBaYt6CWb+Dx5vHj//QxcXFcusjLdBSbZm927HoNaTKi8uXJzWhFfY/83nXx7YQwK7sfRx7gIoNgO+SZoY9kdiQeZ7YVOp8LY8xJfGIhcAKjpc2ZeaOrO8QlMzXANlLxyocnFGJBu9hZbHcxOaKoPLI8IK6LOemrTSNXRSO8iUVm+3U8nbIDwHEXjGey7SvMCycq8cDxjrwMldHCr+jJKIB9RXdNXLGeaGjD5ianIovuG0ZeDGpo9CEzR1TZoSXGSi6AidxJKBA2DZ7VM0GZ2ek+NztcDJ2OLzneuQPNsRd2+ObnkJbXNI26+7mB1bUee5kUYe2rKIufPGlc5uXSeU43HAe4RqdqFPmDfRyaDkOQidKaEB928UWdBMv5tz9lGYuhmnTzFjIIAI32CaUAV7pqHUdpbmJvimbvO2rs3WXhvsdrnCU2qcDIymygA4IGCev4syz39xO8kKXTweMhFIBaeKVi3M0VJMIbA4zQxOuFku2a87+a6bXuvu6cxkoubAMc96Z4qp5+QV4y5THd9vyPVfsFit5yEojsU3yexeibEQhlzYIexKow9LysXvj+OV3I3vNlc55X2XhyOXAQJVzRgtn/GfsVUHzgzqLOBXjldQXrZqgd2sqM0v60jbdMXOz2n1Yr9qGnnvD/2avPzXvQWM1yxZaouXnk2ueiqCUmkriHBe7G3sGKFDh49uTgQC29K1ATDBRDmhci/IfvLtmw4LcMMvhUEJidyUk6wNBNOvy6rir/rMZKLoSJ3FghNe0uXc/r9KGP7nR7L1dWMyMIvo8fkSTfeUonZ6uRg7FTKxqvERiXaXDpqbtSqmFoeb5565jw9EiD9TjhyMTqTz2hiN8lYkIDMvbM1tzjz3OqKZyYa1IjJ8hwEVZBtQmX6T9GlWegOfXZokkZnqUTQezvaFh5R+sOnUTo2culALPzXMQjGSyQ/f0ny11DbuASNPpSxxLeR5jExgqDlJDCpdsFOnoySKkV/OUZyMfpBuwMOYE5s7pNgdK2+OUipAcLpT4eoeU7YGN331ZJ0YunobaWGEtj6nSrsMOeLFPIl52BJQ2hOuGhu1IpcofCGje3OXr1m673OKeYb4lEocjElXG+eCvzDpvpAYm/hEqS4fK7vYNqeutqQ1gVJiV2zPyd07PRfQu4i/UfvZpJCjkH0f713BEOCdDCqci8WXzEZxqQSpSvyI2obU2oK+iJXhclAi4xg+OAT+pPDNy3Soi6smHFWDtHMD2XkX1mj87Vi2e6dOcz9voiCvk2Eut3vxyzm14QUPA51CH4pRnIxhM32+BZuxGb9qk34aZSx/T6jtlndNEtNI5PD/PvFtvRQvtvdVKC4uTX5LtTHC0Y82TCSsrg4lgWArU7sK2Z947hZcc4SP926QuGtKQjeuNkfDaFdMu+KZavH3ueUtlcB+CMXITK9dLCipbrQVSy/vttBSY9Yr94KekOHr3K9n1RHaNhRPmhBag+X2Hirp4kRyzMkTV1SerhCITOspZMRn4O5BbDh9qxcqs96y11lKaxHT3x0BO6KLObiaimossmcq8w62dDYdq08OwFL0zPDIoW1Tm64Kqr3g24v+4j6rra3iSux8F8jIoLhxNs2AfLvsL+68PPruz0tB5tSRv71IGaz2k6oIyJp/zhBfnLYMUcaE7Jmd6/QOP6gZklYWMhgevkEN/dXKL57AX97b4gV7HQcI7kIk504ITZOVzBtpIeyqn7UQMBUDpXGJbbfsO14P2DhbQaFizvcnK1g2mP8RqcWP909ffM3Y0zpRCA7t2lVWL01Up7AQlEQitmNloLKJ93O+voDjt0EMPYO1xgZsYZuyPiYUxyK8kcu39aF7TllQLktz8zlsXwA61JrYgBsW9CXo/Ld1rikrT3XIZMuS8Gh5sliEsQExkZfYN51BzcHxHr2ks+O8P1QwINhrG23erzFdxPtIN0IKxVOKs5/ndQjXgBUUFrLeRswYnHKOQprR+G2e+CZDhwGuvmpOxz/wQa2Jo2a/ZORYkYLmGRb0jJX8dEkFg6EvUmMQq5R+G0RFSZV64ZuTkqGEVUkKeO9sAcxkgurWoORqSaJq1v6/sJ2YfyApazuxmqzHbAVX3qXTZxcXTul2T/Zpm3qJGwjo7DN7+r75ph0Hh/WOdRJnapCWsqpHmZsm+O5jyvIv08hqatlx2Y2UeWhgy5t45om2XfaXzfrL5+r29/iV/yRC38r7F/lCjUv0b8Pd6hfXKFhT7Fh//7DNWpsEx2359h+7/VzVC6un3apbK9/JOfBOkLzXsROMErLvPgiqWsvF3Ktqxqc4jSs9W4qkv7ZvFO9Cav1O/neII0jLP2p7QqorZbMSZTt+77N3E9jydQdM7noEGn9qozad7bhGcd0oG01VtvOau7zXAthEKqC6u4KtotOxGz9HX6Ks+Y1qgebWF1b0f5v7aHiZQ41wOGevZ1Vvsbj6kGwOYWX8TTkwr9OfyNEIFxHUCviYpSOsLI9XRRTVzH1oNUpJK4q6yt5m0Qf19cABdWDE7jq5/1WQLlEcUtCBsxeqq5CXmLjQlKw7nY7a88hKHmcLvtE4P4Qc+w38OVUEm5OIXLx+Rv17uPhOoLaLq6TZbncPGVN7V00QtWM2w5kOe9CFW57mRtZDYnddr8fTnXDs6b6sSeOZRKzpiYb6aBq1LyezNVbVM1uFDOCHdGqhvKiqjKfmYglK3JU7XQrR1OJDcKf81K4OYXIxe1X6Zv7ZkeweMT5qL+h6/ca3+Kj7L57lAW8sdVL3Luqcon9wNnVtC9wM7w2WXbfddQEryVuEx3qmJyRr95iiH9pPWop6u+V0H/971vfI79e8xz5V1q4iL8Vqzmn9I/NpUcwf17VMAOehvykL+GeX193sKBnVh5KsOR9LAPBubsd63mBaGmNNjHqBmbLnehO4pLYo6uhh5KY8Z15g6XWTeMyyzDMnRsmcyh1sh89h9WbB5ie6hEtA3q6wz5XkppxVVrAzRRp5SLBtR8vs4hezZV4wrb5l7w15mrFSWXQwWNMXuSzuqMSTEepO0xz9eDe0Rgk9jDVCvAuz5nFPJrYPkeqN5PXvVB01+4g0nGAqv5cr6grcIcwDjcU1LAOPf5GtteMSxlELi4A9dftR9S2Uoa7+NjbLFYPTjylx+6vdna3tjdHi5j9s+wp/by/mmlqh3jiWfzVJJKnuTfm6TnqPzrHuonf0+wB3vYjEd+jYxcEeGYAWRCm7fXmLdsP6BCF5azq+szsTWMz64G9FolcbAA/i9PmNWpf97C9tog5FhX8uyQ56LNobH83oqkwV93+bkPo2jO7iOKdjEJ/76co4BHVz2ksHdmCLzu0Xfm6qK460+9zWN09hLfN4uQFErnIsaE7hAAhQAgQAgERIHIJCBy9RggQAoQAISBHgMhFjg3dIQQIAUKAEAiIAJFLQODoNUKAECAECAE5AkQucmzoDiFACBAChEBABIhcAgJHrxEChAAhQAjIESBykWNDdwgBQoAQIAQCIkDkEhA4eo0QIAQIAUJAjgCRixwbukMIEAKEACEQEAEil4DA0WuEACFACBACcgSIXOTY0B1CgBAgBAiBgAgQuQQEjl4jBAgBQoAQkCNA5CLHhu4QAoQAIUAIBESAyCUgcPQaIUAIEAKEgBwBIhc5NnSHECAECAFCICACRC4BgaPXCAFCgBAgBOQI/B8JD+p5KIZYVAAAAABJRU5ErkJggg==;" vertex="1" parent="1">
          <mxGeometry x="601.24" y="381" width="194.14" height="31" as="geometry" />
        </mxCell>
        <mxCell id="x1jIhV6qrmOZlEyX5eO0-28" value="" style="shape=image;verticalLabelPosition=bottom;labelBackgroundColor=default;verticalAlign=top;aspect=fixed;imageAspect=0;image=data:image/png,iVBORw0KGgoAAAANSUhEUgAAAfoAAACaCAYAAABBloqnAAAgAElEQVR4Ae1970sbzbv3+Y/yKvrG4ItaOFgoFo4nD09PCuWp8H1IoRhO0Rc3ttxQESRIlAflWBAFwRvFonBLXghCRVAsiCkogRsDxRSKgrAgGAh8HmZ3Z3c2md2ZTbIxSa9CcbM7Oz8+c+18Zq65rmv+DfSPECAECAFCgBAgBHoWgX/r2ZZRwwgBQoAQIAQIAUIARPQkBIQAIUAIEAKEQA8jQETfw51LTSMECAFCgBAgBIjoSQYIAUKAECAECIEeRoCIvoc7l5pGCBAChAAhQAgQ0ZMMEAKEACFACBACPYwAEX0Pdy41jRAgBAgBQoAQIKInGSAECAFCgBAgBHoYASL6Hu5cahohQAgQAoQAIUBETzJACBAChAAhQAj0MAJE9M12rnGJnZkxpF59xMFts5nR+4QAIUAIEAKEQGsRIKJvAs9y/iNSgzH0x2NIvFxGodJEZvQqIUAIEAKEACEQAQJE9I2AWr3B0VwSiTgj+T6k5g5xW20kI3qHECAECAFCgBCIFgEi+rD4Vq9x8OeIuYpnK/nk/DloIR8WREpPCBAChAAh0C4EiOhDIf2AwrxL8ok/9mGEep8SEwKEACFACBAC7UWAiD4E3sb+pK2uj6H/eRan9yFe7sCkFcNApYkth8pdc+93ICRUpS5GgOS5izuvU6teMWA0Mc43K5OtgoWIXhfJu31M2YZ3bF9+ar+71/Ll3QyGRrMoNCzElnZjaHIb5SYmC7rwUzpCIAgBkucgdOhZQwj82MbE0xHkzh4aep29VN5NY+jlAk4fmS6I6LW6kJHasLMv3/96A6UuJjcmfInBNHZ+ajXeP1H1GjuZPiQyRPb+INGTqBEgeY4a4d8w/5/bGB/sw/judZONt7d7m1pUNVkFAET0Ohje7WHCtLC3XOnGd2903mo8TfUGp1vTmHifRf6fxmeTsgpUzrJIxvswe9SifO9PkHtORokyrH3v3Z0jn79E2U+bUn1A+Wwb+bNHXgb4NqBzHpA8y/ui9HUbp6Ub3625yu0Vjrb2UZa/3hl3nXFwGjvf2/gt3J8jNxpDYuawNYbWbEH0LvaoCyIieg2Rvt1Nu6v5eBo7vzReaiIJswVgFv3m/8FpnLbKrN8m5TBGhEbpHIVS8Edm2S50/3ZGE10W7tWzrNO/Q6NJpN5PY3FpAYszGaRejWDI7PsRLH5v0WQsXO26JzXJs09f3ZjEYo0fT5B6NYapuQUsLmUx9TaJ1LM+U/4SmT10coyvyMZBH9Ss2w84nRtG/+AkDu4CE7oPjSsUzq5gBGl5i8tIMi+tlUv3vTZeEdErwTZw8IdNumwAfrWBkvKd5hJ4JxaTOAjmWe3CiivMY2AEK0XNVy6W8cIknWkcBU02qlfYfG0ZKFLQIA1sBaJ3JnR8Ysf+DiaRO4pYa6RRzU5PQvLs10MC0YtyJVwPTW6g5KdR8su2zfdv//YusPLtmJWEJeTqJVaeW/wQrCV9wNEMm2BFv1CUdRMRvQwVz71z5IQPpH/uxPM0kh/3l1h/O4D+wScYX79sjfqIbz9M7mm7BBZXbLsEjcmNkc+Yq4Q3W83uaUWCaGdl6kf0g0/wZmYbxRZN7Dqr0S2uTS/I8+0exgcXUGgxNIA/0Q+NZrBy3CWTSD4OxgeQXmvROBiItYH8JCPtDPK6q/kiXwwlsalaAdoLp8TsSWvG9MC2eB8S0XvxqP/1axvjAtGnv3QnkZW3UiYRT+R1WeQKm6+smWpi/rwel9o7xj6mGE7Pl1EMUmHVvvc7/jaJPo3Nfwzcls5xenaFW3JVDCUJPSHP5tiSjY7o5w5h3F2jeHyC4o/m3MRCdU63Jv6xgTdsDAuxGCr9lbS24QazKCjHPb76DzGRaBGWRPQqIGuIPnJDPFV9GnregIAJ7dZzJeRbHMNYuWiokr/PSzbRR23r0buA9og8R030OhP03hWS0C3jGkz9xZCgOdEMnha+jNDNkL5ARC+FRbj5cxtpYUXflURf2kCKtUFDBc9bXjmatmaqIfaUyl/GzHdePJLBCa97x/8lom+ui3pFnonom5ODlr7NNZgaKnhebuUQszY3aPPCN9sQV3NiwItq9i8RvQrBmv1U7Q4NyPf2Yg+bS1nk5hawvnvuHohTNVDMryI3M43c2jYKLTI+cYxagmb41RtTxXd6fAL2f2fG3p//94/YtO+dHl+6dZW17/uCFTnwX9ud7bYjq3s773U40RulQ2yaHgBJpF5Z/ydmVpFXGA/cnm1jXXzv/TQ2vyqskSvXKOwuWNbgvKz5bRRK51h/Lz/6uWfk+Xcj+qqB0tcNzL535Sr9YRVHpUvkZ8aw/t39CI1/rHEov8W8BRawOLfnNYJmcsPGpa/bWGfPlxaQy19ZGdjlMC+D2ZksFtlYqvKUYvYSJmkHb6XcFq16mePkl2nbWPkJPm2594tB47ZQzqlS1e/i0ewVEb0KwVYS/f0VNicHkHg5idzWHo52s3gzyI64XUDBsILPDL1dRv54D+vvR9A/mEZeJaCq+gM4nbP22gMnKTXtlFqDxxUeAI66X2Glr1Hnnk7Cif4nm9hlMTE6YO/zPcEbc+DTtaNoMUrCqYxMRtfzfPDaw+z/YjLkE0DElut+ZjT1eQ+nF9cwflwivzZpHuOcePkRB7LgTD/3MPE0huSfGyiwPeQ7A8avK5xufTRdkfwslHtGnttB9L9OsP4hhWE7qiczxsuJi4sWi5BvdvfnWHzZh8TYAo5KN1ZfM/uB/II5BrLxJnfmvl2Yt8YsdxyqIWBnrBHSsQPG/tnAxLMnGJ/ZMMfRzZkx2111ABP5ACNEvtJ+tx3gclhjmC1oet16xhRRU3keITQHLiwNXxHRq6CrIcBAsgzKy44il5w/8fhbcnV3YrDPCdBQuVh2hL/h8py6uPtI4ofkPJZdcIvmeCxkYB0uxGONRd2r0Spw7ULjfxUaCFnb23HPlKlhJEf7kHzPVjTWwHdb2kPuJXPBGcDE1lWbLXNvnFMZ6yIdOpbFzPWvxkrcDi7C3DaloULNCGPsvdpIjNe2S6bceLP8hblWyVyRukieVbIUNdGPjiA5mDKJvcwmUXfXKKxlTOJLvMziKGjlqap7qOcPOJ1lci03Qqt8y5or47rx6f4aB1yzGK8helZ+9QHGPyyCnU3279IYf5rGzg9v5Up/WYbI/QExSRyX5iCtpydbbqEfQ3+owDqC/H7zZBjpDyJ6FbwtInozqIwkdK4jYPEUNk0B5UZtlvDqGcIFNYKTbx8WBdVY0BuN7M9b+XEjKe/sPKgsz7Nfe5iy1bdcZdzc3zFs/uMpoTN+2DIlPeLYmWS1NwCRFfSIyVyq3k2IWyOzFczoqqBC5b7BMQS5DHELeU/oaK7C9LMbMb04ZETfRfKskraoib5ucmVVqPjZ3pYblU+yVNUO//wciyYZ+2n6rHGjjugBuOOjhOjNirjEyTROUl92Zwz3HwO5BiGxpOFhxMptZH/erK87vje/iNPvCSJ6FVaOkFjE21jnWIIsE0JuhWm6pdl1Ka4lzb3uocm9FhwYwwdG2aApb3xhyYqcFcZ4z8rJ/ehkH628tN/wrnGOzbVDn751B4KgFYgctQeUv25gcWkDp2G2fISgH359zvbtd3ZP4AmSKEwAZLLt1NHRCPRh9tiO9seJnm0HfLmShGq9wdHaBgp1uxg9JM+RET1QPljAzoVPZEWnP2IIHffi9hw7awtYz196NJNOX0svONGzUNlejaaV/AHFvxdwULMSZ89CEb2fi5vQXr9xiRO99vjO7ZHi4VXwocuSYhruJhG9Cq+WEL2B0vE5ynXR5bilZwxavuqqusqec/92qRpU9kIzdXKJXvuDkVXhke95DG4cQ0S+Xx3ibzFgTzCgjY5vbly13+fNxDj46DlGWTtKoTAQ9murLgGxnn4DqFlDcT/VUXO6smLubw4+sUIBb+0Fh1zuEnnWkqF8Fql4BusaMlYMM3HzikX9L2E1Ki4w6hPW3rnC+qitJo/HoP+N1xwKFh9A8u2kaXB8dHEtmeS55YYier/9dUH+5HLqTq512+TIvt/kwm1C3RUn+jDfWl0mIW8Q0asAawnR+xTiDFph98J98pPddoRcc0XvrLQaqZM7eOt+MLIqP+49A0ezrlVwU1sHbxsLl+wObjGEGQw878XT0A0ZKsYUT/1lWy4rO4Gp7fmgr5AtRwZj6BcHY9sYTzRk4tfMgG9HdqCTk5eiTF7/R5HnGxx80pChl0+QYKSnsV2V1u4X3vCgv1wrwvpPE0czO/G9GLTV3Oxd2xiP96/n79MxrHyTT4pdmdZQ3YuyJTbfkRm/LcWw49YN8hlb9p2Jq1hg8DURfTA+j/M0QqJvfC88DBT849T7oJurk/vBNG9bEKaNXZS2eoPC7ioW1/Z8Q926g1sM/WH8bX/t45NpzNeH1NK5tjGfWJ7+BM3t6/64wvhSGGjrVpDGFY7WJvHGPmjFQwDSPeYekmcTFz8Ca1ymKz8Osbm0gE3fULccQ0ZWw/pnX+ABxXXbiv1pBnmZJ0VQtU3ZF7xMPFbrcmNOVzb9cBLksGGiBzj5asm/oBHRSl+DCS+rnfFGaEVf0wl1PyMkemd/3s8gqa4yjdzgH7ViMLazbnx/nmVwjZ1/WTNduYpMUX/m/3oWQjWuVHl2ntW9O3D5k7gnTQhVuoNuSP9cd3IXToPA3dwYOQf2t0j0foMxq3zFQPniEDvz3CVKZuTXRfLsdIjPRRREXz1Hjluh+5I4xzDsit5uR0j5kra++mCGf+YumOYE7/VGXfwN91toD9FrhThvYn+eYcG/m0YmCVIsNW4S0atAahXR/7rEKdund06MUuyF/7OBNDPGE+t3f4X8fAYTMxs4Za4xdoCd2Q+TWPQ1jgljCR9QJ2YR/06liuYDSJhVgtDA38Dq3plIsdWMzzGhzv5fPAZ9VbqAY9hLkYh96iTLkh9kZBJ9kKsQj2QXj8FZxZgqdX8t021+0rI3qHXnQxfJsww08V4URC9sVTArdKmnjbAi7Y/7WcKLFW32mhnj9flOBk13YnN1X7/d1C6idxZdGhNr5/us25+/Qf5Dut5rxQOfq4Fop9aTiN7TCZIfwiDFBrSGZmGlDaTtWbazryUMrrIOZy4wXpclZjDChIj5OzM3p4/4NJlC7us1jNIepv5dsGj2NMPdT5KV40kqDBLetJYxzYvPirOUnQGk/oP1lPMb/7CiurF92UlsyvagIe59c5fLqAFjsmV7Wvj4Ols1YCQrkMf9IWZtuXYIXFJVd0IgtMeWf9+44tUT69RIdkiSJ88ekucoiB6WhXviWRLp+UN5JEthTPOOMR6gW/jDWgD4jx9cE1gfkKtdRO9EW1RulbnyV7utVjnL4oXyUC++mBK+oxYi7ZcVEb0fMvy+QMiNEr0zAxRWNI5vsUztaQYZqYmK92MDaft4Q0v1w31G7cAjAcFt+GxVuTp02upV8zMBTg5O48jRRnBwav7yAaRucK5J9zv/vNvH1OAwct98XJ9E8pxr43GWPLANk1GfcpmKP1Hje80GyARbjT3P4lQmH9UrKzBOPIakaDfAZU0SW8IUD26oKjF26hl5joTogeLKiGn0WPZRsTsBZJghXth99oa+XVvT5zuG2FoayRZmu4ge3PNEUgdvk90VuUfNbwaO4mOy9w3PL2cxVD+p8aRr8Q8iehWgv7btw12svef/+O+s6o2653y2+Gb+xJph/2DRnEYwMWlFbHojWNQaxQ1MPB3AxN/e43BvD6axaJJD7UfxgNL+Kha37LzrSgecPVjVbNXYxydzheb6hrL6jD9NYvHMh5iE8pxyJIOzkOy3vyzvppEYTGHle42TuB09kU0oE2PLKMqIM0L0KmcLZshaVn7yz20UhTO5jYsNU2bro989oPSXRfYsvOnpT0FO7i6x8+eIGTo3NVezuuREb5a1h5Loelo1cDrP3huRGoo5ctbt8hwR0TML99wo68P6OBzGt6wdXngEn/a9Y0x0osW39Cy5LghyxaLblb4w+REDRD2g/N2KY58b45qmEXzaOrS2P5ms2LHueRhxJrP9ZhRAN40VL/8QOzN2ZDwma+9XkWe2Pd+vvcaq2gRs4OBPq07Owsm4xGZmQM8Ali+GlBOK1vYGEb0Kz6rhIfr5xUXVG/XPK5dYZwLLfIVfjWBoMInc0Q0gxBYfGk0ixWKeB7iamBnbA6SzBVBfWv0dvjqq21OqT1re/2gN9k9HzPoknvmpmOvfLcxbH4BX7V+fju48oLRlhSIdGh3D1NyCedCHFY+8D6lP9QN02zBjsdH/sAI2mYPn0ydmnHRfdze7YkZxG7Ov7Zj95n6rNTE2Y+bLrL9NOR7BbP4EO59Yea6bGcPBLM/vEJ1ekeeoiJ71ye2hFU6ZxyeYm0San6nwlB0gUzPJjFTAGNH3YfyvExx9ZoaWfRh+abkfJp/GrDHPIyPuqtmUQUGeHHdAexysf+4aGHLrdmmaOqNQ7kvvb0vgQPSTe7cwmWXj+RNMaYas5hqKoK0up5wWXhDRa4ApCsry/zRA9HYZFXaIAzvwQ1y9sGf31+bJccUfRmDwCJaUr2YCI5HVtYnHZdY0kqvcmNbvOvVxi+JGUu1VSbnld+HV3RWO+Olc7ASurT0UxRXxYzapYphW0ezEwvKdsEpX1eneMA+0KbD4/UbAe9UblMQwexXN98zye0SeoyR6hlP1AWV2oqB9utvi0ip2jhWnCar6t6HnDyiXBD95FqP+1xUKbCwMI1sNla3/Ercl0SJh22vAPMCpdjz3LZJPJjTHYd98wj8gotfArFVEr1GUMom1ava3VvbLoHI8be6l+hvE+L2pef9i2TyYoj3GPZp1omQ9i0BPyHPURN+zvR9RwyonlnGp0qCuwfL5ORYSN8IGc9R+jYheA6rOIXrbYrOR/R0Wz5yFrww4wUkDCp8kPMSl5EAUnzfoNiHQFAK9IM+VKxzkL717xU2BQi83i4BpyMgOx+FnMjSbofC+pbbXMNgT3mnVJRG9BpIdQ/S2+1ujcfGZ2p9ZSDfkIhiEk71f5metHfQqPSMEGkWA5LlR5Og9XwS410vdHr7vG3oPKufIPbdCQPt5Q+hl1FgqInoN3DqG6M3gPc3MNh9wOjdsruqVrnIauFhJ7KNK/dyrtPOhhIRAWARInsMiRunVCFS+ZfHC78hb9evSFJZLY7vcGeurQERfj0ndnY4hembE0qzxiu16k2iRC5z1UcjjVNcBSTcIgVYjQPLcakQpP7CtyJHWLYhYjArmdbDbLnfG+i4koq/HpO5OxxB9Xc0avGEHd2ha8MwgKyPIfWunq06DbabXehcBkufe7dtHa5lF9onMNppStXPZ/PJ4JM8gJKLXEKT/+6//A/6/Gfc6jaLal+T+EuvvM9gpNVrkNfIfMli/CHChajRreo8QCIsAyXNYxCi9EoEHFNcymPiie3RzbYYPKHxOY7ZtgYlqy3d/E9G7WMivagIzhPNfl2dJdwkBQoAQIAQIgXYhQESvQpqHLLSjM7XcYl1VPj0nBAgBQoAQIASaQICIXgVeq46pVZVDzwkBQoAQIAQIgQgQIKJXgUpEr0KInhMChAAhQAh0MAJE9KrOIaJXIUTPCQFCgBAgBDoYASJ6VecQ0asQoueEACFACBACHYwAEb2qc4joVQjRc0KAECAECIEORoCIXtU5RPQqhOg5IUAIEAKEQAcjQESv6hwiehVC9JwQIAQIAUKggxEgold1DhG9CiF6TggQAoQAIdDBCBDRqzqHiF6FED0nBAgBQoAQ6GAEiOhVnUNEr0KInhMChAAhQAh0MAJE9KrOIaJXIUTPCQFCgBAgBDoYASJ6Vef0GtGzM+2NJk6cqxgw7lWg0XNCwEaA5I1EodUIkEyFRpSIXgVZLxG9cYLFlwNo6hx6dgb90yQW6Qx6leTQc5I3koFWI0Ay1RCiRPQq2GqIPnemeqFDn9+fIzcaQ3L+HJUmq1g5yyIZH0HurAnNQJN1oNc7HAGStw7voC6sHslUw51GRK+AztifRL99RG1/PInNkuKFJh9X/tnD4ocMptZOcFttMjP+evUaO5k+9L/eQKlFeZa/pNE/mMbOT15Il/+tXuFo9wSlW5/JS/UBt6VDbB5cd3lD21B9kjcpyMbZHvIX16j4fYP31yjs7qFgSF/vmJvOGLV0iLJfW1pdW5KpphAlolfAV1wZFog+i9NIBfsSK89jTnlvtlpDKiYpx0ewUlQ0lj+u3qB4fBk80aheYmU0hv7RZRQjxYRXKuK/v7Yxbk/oEs+SSL2dRG5pAYtzk0i/SmJ4kPVLH8b/vom4It2fPcmbvA8L8/zbHkDyVRITMwtYXFrA7PskUqMD1nc/uoBCsyo3efEtuhvNGKWqHMmUCqHg50T0gfjcIJ/hH2cM/X/sI9rJ9jlyjvYghhcrl4G103p4t4+pwRgS2nU3kJ+02qyaaFSOppGIxzC+2wPkJxC9q8ER+j4+gImtq6a3PbT6rJsTkbz59p5L9KJcudeJl1kc3fq+3iEPzrFoTnqteieWzqOvF8lU0xgT0QdBaOxjSiDeqf1oaZ5Vpbz/EanBGIZeT+PgV1Dl9J4VPzONxDBWLvTSQ2jz7JGPGptnxVb1TAMxOI3Tjl6F8AoH/PUl+gEk3y/jtAV9EVB6zzzqfnljRJZGPgLC9SP6xLMUZncvYXSJZoyPUYmXH3HQhq277pepx/+8iegD+sDIZxw1ev/zbIer1CQNqZxgls2+n+ur19kq3VrRprGjQW58a2MiH/0kSNLC1t2yiT53ZMD4cYnT40uU7wz//dTWldw7OfWEvDGtmp7sh+04k+jfbaB0d4PS2QkKpZvmXF3DVqAb0/eETD0+8ET0vn1wjc3XrlqtG9XT3JDwxWf9LYDCfJ9F9Gxy4IuN8KC4jBdM6zG5F/G2hlBmFJec6LvVqyIKTELm2RvyFjXRbyMCZUHInuqe5L0hU4+Pd1NEb5ROsLNmGZQsbglW4sYl8kvb0a6Aqw8oX5yjdBcNiMyFzCQwRmJdaXD2gKMZa6KiVME7EF5h85W99zavufdWPbHtCiZx0M2LeiJ6Rwoau+gVeSOib6z/o3irV2QqCmzC5dkY0d+eYOXtAPoHn2B8fhtHx3vW79EsTi+2MfE0hv5XG4jOE83AwZ+2lWp8BIvfFXvJ4TABuEW5uT/fQhcyNgFayyI3t4D1fMCeXNVA6ewS5ab2vbnRTLAasvLjHKfHJ9b/r8uO5Xl6ad+5X/gRhK9rsJj7FhboDkrf6URfvUFhdwFTb5NIvbL/M88AcYItg9O4wtFWVnhvDFNsEq7YljGYK+FMxlPW+tcrFPPTSK/JJoG9Im+/H9FXfp5jZ8nyLrFkK4Pc7jlKZ6uY+LTvaiAq1yiwseLrNtaZR8rSAtaPRUPcB5S/s7Hk0F0Azu05PGDK1NICcjPTyC2tYudMfFcmvL0iU7K2tfdeeKL/uWcROfOh/iFUlvk5vnNV3QndFaGQhf4l+xjdsvpbWtYDCvMj9j71ACb+bo2LG0zcBpCe30b+c9rMP7kkC17zgNNZW33eTLt+biNtYpRFwRfYG0+fya3N1db/3Mgo9deVb0kd/0Ag+tvjVUyNPTE9CvrjzBgvqzEoRdfCyj8b1jcXt+TnyJ6YHa3ZNiSjWRQkYYlvj7KmYSczmtr8eo7SrxuUjreRY5N0ltfapcSL4AGFpSQSgyksfr3C7Z0B485A+WIPi2MBctkz8hY90ZfZhH8+gyRbEMVjYMZ4U2uHKD2CRqz8dwZD8RF82jo3bVJYX9+WTrD5pz0GvhO2GuxvRBwnvFuasvGEyeYVNiefYDgzjc38CfJb00jbbR+a3HMnErWfUM/IVG3D2v87HNHbkYn8/IldQ64YPOpiNhPcXTVngItLG8FBI7QwMHDwhz3oxAcwexy04tTK0ElU3k07A3zLSN7UEPRh9qv9JTvR9iQkXD1HznZfSX9pYpLByxA/VKeV8ovi5yfWBCekNuZ215q49M+dyDNW3PVoFbh2oYm/hUZGTHsQS46OIDHGiP3aJDjjxznWJxkx9iE1dxgcW0DRzkYeV4qreGPKwwhynrDD7BtwJ7u1/v1cjhOZbUlQE3cyWxspsXJsuUxKjSvvT5BjXhayCWgXyVtwP0RM9M9HkBwcwQQj9l9sEnWDUt6akPU/zWDzn9aNZcHtBPBjA2/iMUhtePjCrXb8YIGjLlYdzZ+X6K0SK8aVFaDL1oiOZwYwXjuWlayy2XflO373jEwpeyLyBCGInu2XCIZaElcQl+hddbG5Ghkdw0qeqXT2sP5H0iTSxNgyipJViHaLTfX2CYo/W/dhlPMfkWTCOZhE7kilVtKuKUzrfcFYrfRX0tYYSALwcOM25hKnZQ0nr4dDvpmAGbPn1Qb25+33ucFMf+2g4Mnf78cDCitjroqYq6Wb+Tt7GN4w0CZ6KTFyN8J4DMlWxDbwg6L2vrCFlJg5rFl9C5qfeB8+iQYSziCawqaodRPz59bMbKAV3CgLS9Y3Lt4TXzO9LCRE3z3yJrZGdh0x0fuEjnY8fAYncRCR3VFta2//tibofpo487uWftOuRlVG9KwcRx6YxqJOdlkKNw8/X3wnj44fw2qR7bzf+kRfXLZIMB6Dn2DUWWxXWHz12j1udzWhH8QlauAeUPhsT0BY0ArF/mW42ljW++7A6VrzJ2ZPagZv8QOZxlETe/TORyIZlKX1v91zZuluXaUp6282MPOuz+Sx71zjYGnbd/LJ3Qj74wHk6deE23NzzzLQLkPyrjP4x2s0ZDytuW+/jfyFOCkVJgCBmhlBI/B6A2U7T070/czeRkI4leIeFiVhgHtH3qIjeuNsA+tffbR0QvwK2bjAu1z+9wHlrxtg2tIw8R440ZuhrEuSBdOvQ6xvnUsmzS5Jq4m+D/LzQYQIez5jVO/IlLzX2nlXm+gdEvddaUpWhN8XLDV4bVjHuz1MmGqdBstck7gAABe7SURBVAbNSNDhe0utXclbVX1A+ezcNawrbSBltl32AQiDr/YsVg6IQ0w+H1HtWzJtTG0a39+c6OOSrQjfl7rrgYuP2mbB27IrrLNQwWafh4kiKMhCGL/uyiFm7bJUGhZuWyGe4eDxNonHMDQ6hqm5Vex8DTYO7QZ509siWsVEPImcqYG0jVR9tpEa2iLyCofwyx0/++PhPFiMg4/2diOLmREi3kfNnjsL/czC8m7mVd5MYYje1e4KjQXAx1yfrSAA3SBT3jZ17i9NoufWj0ytnUVBoraHIDROBDlO9PHaSFOuoMhne48A2O0hci+Z2rIPqU97kn3N1tTJEV5ZEBvHVc1fa6JbC2cQ1yR6ZyUXuAr0Kf03IHo4bYxBRaBelFxZNw2vtEOGCiueeAjtjjOR9B9Aef0cGYnHhFWXbYzHJwuevwNIfxbcaHlGAJy8OlbeHlBY09kiGsFQvA/DLwXvBr9tpEa2iATMvJcC8Xn6w5tK9stZ+Zp9VTvWyt5w71nGeO5ElE9IrXFwGyXp9qor0+oVfeNE3/ky5eLY6Vd6RC+odf3ivbsrHqFjqwaK+VVselwwADiE1ofF7x0E0f0lVmzL4sTLBZy23ArWHbylXgnO/rxstR8OJ+fj1xp43dWEtF6qojkJ6gbZUeXX9ucaqk/eRjaYhmrnA4rrYxhi7z3NIK8dMtQdTPvDaErEeiqMI52BNB6DMzm3sb8920buPSO9ehKoNeBjr/SOvDHchTGsVbKo3L7xEn1tfwRW49c+PvFFitSTJ/BtMLe39Q8p++Amb39LbVaE/fUoib53ZCoY/3Y81SN6YbXud9CKo9rXGQQv7GhqslVtO1odVIbjWcAC5cjdloJeD3zmrLbkRF7+MmareL0ruNtvq5h6P4nFvH2oyq8TbM5NYmrGf0/O+UgUg71ZX2EiF3p/nmXwLWvVW2q4E4iI9fAXCzkbrCYN8zy0SvUsK6g+fSICigTaSDtlWrBAaNzJV38Y4nFcktSaB5HogzRrlV9XKORXMWWSCSOC+i23rpK3QNyjIHodEvemCeoP3+qHlrH6nCrGNYpfuQsm62uZVbw7CW0L0XfDGFYPZUfd0SN6ZwXus8dYvcK6dkQ1tvfIVOQjyJ1JDEB04flx2Ppz23nZP4UjS6XuSTxhuL+Odbp0D07YkxWJpLiMN3MnpktLih2T+ukj3kxuoPjrGoWllHnGPDekEmvjlCXmJSYQrqXaGPO5ZRHP4r8H/XMGee0T8sTcHt/q3jFKYqvXwQVp3AEXoxj6pVbEYptac+1MnuMhNF+Ch0D/v7YdI7v6GrlRx8Q9YbaF46vVYRovOyx0rTtf98hbPRLeO1EQvbD1yU57lB51LE7sktiMLtqY01xT7v3Gh+oN8h8sD4x6q/j2EH3vyJQD+aNd6BE9XBKqt7h3rejZ/o5K5WT5947g076P9akWFK4KnJWpOk5VK8uaRKW/Uo4BVatcqhxClKliBf95F2NmQT1muUjxldrrDZSqAPN3NvfT/PbUuX2EhobF2Z+vTWtqcjLIS6yvRbi4u2D9gCCm6uBrEyu2Lzvm61bJ2yhf4UTUNsHTRerrbBdrDoiC8aYruwFGXcKEQLTyNlf5AZo2rnWq+857Rt6iIHo7euTTEaQ+bMj3vUUjSsELIiLJMrO1xqOA79vW1NVrcdtD9OgZmYqyF/Xy1iR6ZgJpu9eJ6uzKFfI8gpK5lxe8t8UsepMt8VF3BY2RXSQE4/gZ26rKFsywnRlqvN5/ngc4YUTiqu0usf6HtSrj7zqq9btzbC6tIu8XYMNx1/FuA8jEwlHhiioyFjAj04c3ymh37sqwbvCXFdaJ92x/9bqgHryu1Sv3gKN3sgA0PGGr/4qT6Fo3Vbsss2593gl25RyLtqW/X5uYhiJhajDSyAvupJYseH3rxVZZxqSSFWfPyFsURA+w7zfxPItTqXEb4PRHfBi5b01oOsXOUlzzhYffN1435jj5ueNvlKp798hsGsMc6Bu80Cd6AMb3VSt04eATpF4xQx1mhXuIPA/ZWrsiFCvF1OFP097IT5XGjwHlZyIPvZb7+4pFN3ptnYNsGae0xOf//tA6Nlb8mJnB4q4dqMecLMmF2lLjhrGo5apAdeCd0pod7pKrpKs3OJodAQtPWVbu+/FyJIN/o8A/wnvmJJSFAs3XaJqqBk55SOTR9py/7Wl+9Rp5MzIf21ZIYfH42j06t3Jt9pPUYOr2ELMm2Y/gk3jWOTsM6njBirYnicTmTPoGU1g5827ZVErbGB+MQf4tcDnodnmLhuhhT5xZoLCCF1bgh4Urm+S/WZGFJfZIRMt+cKJn26ifmP2P+K3fnSDH5Ec80OvuyrSlya9lnJgqibEF5Jl9zT+sUXase7bHz8MlszbNsfNQTlBgwc3sPI52p82ofKZWcjSDddOdUXBDNlvZKzLVsi5rOKNQRG+WUn2AwYxzzq5wawZ04Z0Rg28IVDbovK63OC6usANpGq579C86xnNyA6RGKuDGLbdceFi866G3Wcy+tSYU/YIK1s3fxthPTe8m9FxxVz6/WbeT+P4S62b8c6tOw4MDeDOvGe6VG2oGTfKcgjr7wokNb/sT5z6MOfHIh96u1g/Q7WqO6b2SdeKDM0IYfmbHq/dxdzOrVr3B6ee0xJqaxczfQ7GWcGw3uURmA6dfl83ymG+1edDJqLq83pC3iIiedYgZ893CMckOJFqaxsRL+0yFwWT9JDNi+TKJfnQa+eNty2qfbS0wV0KzTszNeNsrI6JBqrkosccsdm1693gNCk0SF9KZ41BQHhKj096QqYg7UiP78ERfmykf6P3255kV+1vJSqh6jc13YVaotQW347fXFqB+r6rBOvDJ0jE7aOQBELYJpPYGNsa+RlJ+1eDeDZpGcpUflzhlEzgf9aKsGK7eaxk2skLaec9zLsMCFte2cdpI7PyI6ly5u0aRrY5KNzB0IycyeWMx1dmJiHfBWrTKjytPPP+K5ntmc3tC3iIkelsm+Clu7PQ39n8zHxyMKCJRAm6vPAfpVAx2eBEbkwx92YqscnbGPSFTUYOkzr9ponetkcewU+sjbKuramd27u/Oj6R2OifMWkOuqD3wM5c49lF/E8OVWinc/Tm5YQzH2Nmf92Qc9IOH25XnG/Sm3jMD+cnWaTv0yqRUnYtAL8hb9ETfuf3XiTXrBZl6fFybJHohrrZMdRuoplH7+T4+PEIgEFMF1aAG4m4fU/aJdHXuW8LBJX7W/ZZVfLChox9WphFQRJ4JPBqi/NAKvxrR/V5GoPvlzUBh91DDNqWXe7Gz2tb9MvX4eDZE9JWf51aAk7xt1MNI8Pk0dsygJ5ce1d/jN7HJGvBgMPZek2sRHyJfYcLjNWRyraqlBlVmEfa+V6MuN9xiPEwMbK2msboPwwzmUqvJ0XqfEvUkAiRvPdmtj9ookqmm4W+A6NkqXlBnC8YWpkpetrJvupqPmIFA0qx9DbmQ2ec+D38QrNiZZfucdWLe0KSPby1v9n2Te2Z2ACA/NxpeTKi/9lGofu5bofKixL2FAMlbb/VnJ7SGZKqpXmiA6Jsqr/teriF6pQW7Twv54RFDo5YV8zBzU3qWxsrX67qjan2yaOq25aefak3ELWZ78S4Gfy1EU1Wll3sAAZK3HujEDmsCyVTjHUJEr8KuRURvFlNhVq0spvslykZ7gmKIzTM/FDHgkfhQ+9rabiCS1wbst01I8vbbdn1kDSeZagxaInoVbq0kelVZbXhe3p/G+P87gcSFWqv0ytkyxmf2yVhJCy1KRPJGMtBqBEimwiNKRK/CrMeIXtVcek4IEAKEACHQWwgQ0av6k4hehRA9JwQIAUKAEOhgBIjoVZ1DRK9CiJ4TAoQAIUAIdDACRPSqziGiVyFEzwkBQoAQIAQ6GAEielXnENGrEKLnhAAhQAgQAh2MABG9qnOI6FUI0XNCgBAgBAiBDkaAiF7VOUT0KoToOSFACBAChEAHI0BEr+qcRyL6228bmH2fQS5/1ZbIeSoY6DkhQAgQAoRAdyJARK/qt+IyXgjx/BsNgasqxvPc2MeUU2YfZo/bH0XPUx/6QQgQAoQAIdC1CBDRq7ru1zbGHdKNoS1EX1NmQwfpqNpFzwkBQoAQIAR+CwSI6FXd/Gsb5ql8Ntn/x39nVW+04PkDimtjGIr3YTizimKlBVlSFoQAIUAIEAK/JQJE9Kpur1x7iH52flH1Bj0nBAgBQoAQIAQ6BgEieo2uEFf0y//TW0RfuTNQqWqAIEtSfYDxCKfwyapC9wgBQoAQIATkCBDRy3Hx3O1Joq8aOF1KYiiz3fhJdPfnyI0OYGL32oMX/SAECAFCgBDoHASI6DX6or1Eb6CwtRfxvrx1pnx/02fTA/i5jfHBPowT2WtIEiUhBAgBQqD9CBDRa2DeVqIvbSAVn8ZRhAZ45d00EvEUNksajddIUvmWxYv4CHJnPegGWLlGMb+BxaUF8/9m/hLlCPtGA25KQggQAoRAKASI6DXgaifRG/uT6M/s4VajXg0lYSvweAzJlUvt128vTlD8FZTcwMEffegfnMTBXVC67npW3v+I1GAMiWdpzJpEn8XUyz70x0fwaZcCGXVXb1JtCYHfFwEieo2+bx/RP+BoJobUX1catWokSXhCNvIZy+vg9QbKQUWWNvAmHsOL+fOeiORnHHzEUDyGRK0NA7NtmB9Bf5y2K4LEgZ4RAoRA5yBARK/RF+0j+kusPO/D4neNSjWS5MKK8vfis+5qnk0MYhbRzxwqCNxAfpKlTWHzRyOV66B37g8xOxjQlsqJ/TyNnUBNRwe1iapCCBACvy0CRPSqrq8aeP1f/4n/+t//if/6r5eYX4zQvS7S/fkHnM4ytfMwVi5UjbafVw4xawcK0okIaG47sFW99kRCsx5tTlbeSlmTm39t+2gxLM0LmwB2e1vbDC0VRwgQAo+AABG9CvSacLQ6hKfK0u/57d/p6Pbnefz858so6vrNn2WRMIl+GCtFv1oL9xspQ3i9My6vsflarcUorgxbkwGGZ2dUnGpBCBAChIAUASJ6KSzCzbYdahPt/nzlaFpTBe+2vfRX0npnMIuC1uTgGjv/YiSpOTFwi+qcKz5ZYROc+XPfet3upi1s4mPY+embjB4QAoQAIfDoCBDRq7og4mNqK7dXKJjuWx/xZjCGNx8WsJk/R+m2ta5qhSWmtlccynN/jcLxCU7N/4dYeWevbN8u4IDfP7sO3Kvn5aS/dGkQHXFip0X0MeS+qYSInhMChAAh8HgIENGrsI+I6I2Lbcy+HkB/fADJ99NYnEljOJ5BbmsBs5knSLADbf7YQNFQVVDnOV9px5A780/vrlJtgrf350VjxH6FqtrJQ2m851+PR30i9rcm0Ue5nfOoWFDhhAAh0BMIENGrulEc+FUrYlVe7Hn1GvlPSZPI3yydOMFXavfnjW8Lpg93S6LX4Rw5k7RDWIlfLGPYfCcZLrAOx8vXkE0BkkerwLULTfw9u4Khte1g1cvsBz7BIaJXdBY9JgQIgW5AgIhe1UucuOzBv6nV2/05Fs2AK7U+2PL9+dJflvV3YvYkUF2uagIcg8I08pqReMLvz9u1cFTfWRSUFatPUPm+jPSrJFIt+z+NoxBaEUcjwfpbk+gTS/57+fUtpDuEACFACLQXASJ6Fd6tIvrqNXYy1j55si6ojI//vOlux9TokzgIQVZ1TXKIXpd8b5DP2Or7sCr40GXV1fZRbzRC9EETgkdtDBVOCBAChAAAInqVGLSI6JmPuemqNjiNo/uaQv385x3SbDKITthVdkj/eU9rnDqH2CbwZPC4P3gsANMuQXNF37WGh48LNZVOCBACbUKAiF4FdEuInq3YrRVyQkIevvHtvy+E82P3a4vTBs0VvVNuyP15Vn6XEz0crPRV901t5/j1Gd0nBAgBQqBFCBDRq4AUB/5GjfEcFbzcFet0Th7fvvxlzPbVbq/qvuH9eYalQ/RN1lnVL1E9d7Qf+kQ/e9RaV8iomkb5EgKEwO+JABG9qt9bQfROHjJ1ts/+PNwIbYk/99HMFr1LvlmcKi3Qm9ifZ1j+3EbaNFzU1B7U4l+9QZH77Lfib0ire2gGzHEnYQ1oPWrbTL8JAUKAEIgQASJ6FbgOSVuq94bUtI4qXEL0JjHWnz9fOWNnvLMya86Nvz3B+ocMppb2UGJ7/dUbnG5lMfVhGpvHN/LWOOQlKb/2jYD9edMifu4weNLB8VL429cWy38/ttU9cIMdHigo4LjgwrxtrKgdNZC3kP4SAoQAIdBeBIjoVXhz4mrGvc457ax+9Wfuz/9Rs2K/P0dulBFJjRte9RIrY1mc3l5i/RU7QvUjPr3OYPPiBuWzBbzxPTnuHIvmaWwaoWmdSUltWosAJ/LBugUn1G4ASaogf+znzqE2vpMV91S/pl0fH7uxVD4hQAj0PAJE9KouFvdsG92jB8B94l/MeX3i6/bnjXOsjDE3vAFM7HrDyFaOp5HeYvd4pDt7tc8mEuZEpH4iYTXPJSblfrIzsfGq+cu7aSReb6CkUP3z/f0XK7pH4ao64BGe3+1jKuiY2vtDfJJpWx6hqlQkIUAIEAIqBIjoVQg5xmVNqO5ZGdVrHPw5Yq7S3Yh4bH/eXjlXrlHY+mhFw3s6hvXv9Svn4vokdthZ71wV7/i4GyhsLWA9f+UbWEebgP9ZRdIkMXc74fbrNJJPM8grD29xj29VTihUuD/ycxYhj7lDJjLbKIuTm+oNjmZZP8aQXDr3xfuRq0/FEwKEACHgIEBE70Dhc1FD9M36TN8eL2P8mRU4Z+iZFdN+6Kn9+/Uk1r9qhGy1j48d/9tnT17WFK6ZeLeN4OB4DyiujWGIkdyzJFLP+jD0Oouj4JesEqvnyJkr4S61uPfg9oDSVsbGIY3ZpQUsLmUxZUY2HEB67ZJI3oMX/SAECIFORYCIXtkzPE68bXw1d6J8QyvB/Q1Ol5Lof72A0x8GjIrWW2Yia3Xup6b3yYft75u+/JokfH+N4vE5Sr9CuI7xyUStzYFPlbri9t0VTndXsWgS/QLWd09Qqle2dEVTqJKEACHweyJARK/sd3d/24yW9moDJeU7egnq9ue1XrOtwhuw9uZGZiqDOq1qSBIVPw+bWxOzxyEmB5J86BYhQAgQAoRA6xAgotfA0shn7MA1bFWv4aKmkSfg5z+veJm7vzn784r04mNuZPZ6A2XxfiuuK+fIMY2BhsFeK4qjPAgBQoAQIAT0ECCi18GJE6TtYteSFbGP/7yyOrb7W0P+/I71/zByZ61ddVuHwQwj9621+SrxoASEACFACBACgQgQ0QfC4z4srliW1qb6vgUrYqn/vFuc75VFqClsMuv7Rv6xU/RYQJhWrrzvDzE7GEOt62Aj1aN3CAFCgBAgBFqLABG9Lp42mZlEH+9Ds+5jhfk+pP660i3dTVd9gGE0uWr+uY3xwRjeNFK+WxP76gGnc8PoH82iUHsqX11aukEIEAKEACHQbgSI6EMgzlbh5lGzTIXfJLHdFk9QugtReKuTmmQ/0rQK3wykM5rFKVmit7qHKD9CgBAgBFqCABF9KBgfUJh3VfjJ+S4PmPJzH7PvFhon6Z97mHq/iiKt5ENJESUmBAgBQqCdCBDRh0XbiXBnxaJ/s0KBU8JCSOkJAUKAECAE2ocAEX0jWLMwqHNJW43fh9TcIW7FMKmN5EnvEAKEACFACBACESBARN8EqOW8HZuehYt9uYxCiOh2TRRLrxIChAAhQAgQAtoIENFrQ+WT0LjEzswYUq8+4kAnHrxPNnSbECAECAFCgBCIAgEi+ihQpTwJAUKAECAECIEOQYCIvkM6gqpBCBAChAAhQAhEgQARfRSoUp6EACFACBAChECHIEBE3yEdQdUgBAgBQoAQIASiQICIPgpUKU9CgBAgBAgBQqBDECCi75COoGoQAoQAIUAIEAJRIEBEHwWqlCchQAgQAoQAIdAhCBDRd0hHUDUIAUKAECAECIEoECCijwJVypMQIAQIAUKAEOgQBIjoO6QjqBqEACFACBAChEAUCBDRR4Eq5UkIEAKEACFACHQIAkT0HdIRVA1CgBAgBAgBQiAKBIjoo0CV8iQECAFCgBAgBDoEgf8PFUfQS3AMLowAAAAASUVORK5CYII=;" vertex="1" parent="1">
          <mxGeometry x="278" y="78" width="266.12" height="81" as="geometry" />
        </mxCell>
        <mxCell id="x1jIhV6qrmOZlEyX5eO0-29" value="" style="shape=image;verticalLabelPosition=bottom;labelBackgroundColor=default;verticalAlign=top;aspect=fixed;imageAspect=0;image=data:image/png,iVBORw0KGgoAAAANSUhEUgAAAQ8AAACgCAYAAAASEumxAAAgAElEQVR4Ae1d70sbW7e+/1E+xXwx+OFYeLFQLLy+gduTQrkK55JCMbxFPxxsOVApSJAoF+W1IBYEi2JRqOSDIBwRFAuSFJRAMVBMoRgQAoKBwHPZM7NmJsn82DOZmExcguzJ/Ng/nj37mbXXWnuv/wL/MQKMACPgA4H/8vEMP8IIMAKMAJg8+CVgBBgBXwgwefiCjR9iBBgBJg9+BxgBRsAXAkwevmDjhxgBRoDJg98BRoAR8IUAk4cv2PghRoARYPLgd4ARYAR8IcDk4Qs2fogRYASYPPgdYAQYAV8IMHn4go0fYgQYASYPfgcYAUbAFwJMHrKwVS+w834CyedvcVCRfYjvYwT6FwEmD4m+LefeIjkUQSwaQfzZCgo1iYf4FkagzxFg8nDq4Po1juYTiEcFcQwgOX+ISt3pAb7GCDwcBJg87Pq6foWDv0YVaUNIHImFPFjgsAOLzz9EBJg8LHv9DoUFgzjif+6jankfn2QEHi4CTB4WfV/dn9amKhHEnmRwemtxU4hO1apV1NqYbtVu2ns+RFBxVT0gwOTRDNbNPmY05ajQc8zsh1vmKO+mMTyWQcE3AapS2PD0NsptEFAzzPw7/AgweTT0oRgoI7qeI/ZiA6UQD5jybgrxoRR2fjY00vuP+hV20gOIp5lAvIPXv08weZj79mYPU4plRTXLTu5em68Gf1y/xunWLKZeZ5D7fhdo/rWzDBLRAcwdBZTv7QmyT1hx7KmTbvLI5S5QtpP66ncon20jdxZO6ZbJw/Q2VHZThtQRTWHnl+liBw6FbkVYcpT/oVmcBmXO0Qa6F0VvtZRHoeT8Equ6oPBP5TrQldZZnmX0/h0eSyD5ehZLy4tYep9G8vkohpW+H8XSt4AI3roWHTvL5KFDW8XBn9pAFp36fAMl/VpnDhrJahoHzmNXuhLFVWEpGsVqUfKR8xU8VV7kWRw5EVj9EpsvVCUyO8pJYGsiD/0jQR8LkQ4lkD3qsHQrUU2/tzB56MjlkTV37PyJfqVjB7cXWH85iNjQb5hcvwjGj4SmXtN70ubl4qqm55EgzGourXxNx7euOgZL32RsRx5Dv2H8/TaKAX0suoUXkwch/2sbkybySH0O5+AobyWVwT2Vk30zL7H5XJW44gt5QsM+re5jRuD0ZAXFECuT7RsY4BWFPFLY/F5FpZTH6dklKn1k9mbyoHeliTw6riylcgNNL7D6RBBBGrkbyYxN7ZYzS9P0bgSr55JlPNTbNPLotO6sW/AyeRDyP7eRMkkeoSSP0gaSog0S0w9qdu1oVlPqySuIy58nlGeerl5QNpxaIcDkYYVKH55rmp8GQR6V8z1sLmeQnV/E+m7eWFRXr6KYW0P2/SyyH7dRCGiJf+WLZi1ymn7Ur1E8PsGp9r/zXtN3/OMtNvXzF0Zdrbr626LqgfvHNspW1/mcigCTxwN5E4Ikj9tLbE4PIv5sGtmtPRztZjA+JJbzL6JQVR2uhl+uIHe8h/XXo4gNpZALwCx8Oq/qLhyJr6mdllaAqIvlR5/quFhnHsirY9tMIo+f4mORwdTYoCrlCYXpmzUcuZjGbfPtkQs8baGOaBpUjgOQnrFKNW/MxMIJqiaFIon68aEBxN8fKpaV2vmKQipiAPsuT6/DNXZeqeSRPdNPOh+QZSYa8ehMRpapCX/eq03SD0lB/lMXSckZhc5dVd6pESTGBpB4LcjiGtUboTzdQ/bZAGLRQUxtXQZjZetcK2xzZvIgaAIiD8WRysKt3fDpSGLzhyiUFI/qgJdTVlJlrVIa0ANY+mZ1vfWcH32HmgspZiOQJipz8b/2MPM8gWRg/xPY/G4uoEeOtXfKcjsHnbjD63TH5EHvWSDkoQ4qK5dw3ZdCmDi1Mosf1Y2Ghqf3Alh0RuQhr/gsLIuvnzcFq1p1H1IO4fyQ0moemx8PbfrW9PEI0rv4HvFl8iCwAyGPKkrHeZRbvDQ9+lJQnbyk5H8h7VbfTp0M8mh/uuWlkcHeWykaimP/U6YTnBb9eYmWPiU0S1cklKu3mTzofQyEPCizplQf2F51C035OP3UlZiSkkdlT3eKs5KUnIoC+oE8qjiaC2jq9NLfUgZjKhtBzMlC5twZXbvK5EHQd5A8/OsWqHIyqbdpS3t1MsijfV2NTNtCeE/9GoXdNSx93LN1Q28gjxDuVsfkQe9lB8lD13d4cN6iasmnRB5yFhD/+g5Royvs/OHRsmNuSL2K0llAUwbFN6X3rC0yxNBwD0se5jckZMdBkcevC5wKvYe+h4OLbuH7BlJCYWqG6/YSuYU0pt5v4FQ4kGlOZXNvprGUu2gwARuPebGAONRJWEJeuYnhRFQj8it3jYoCD8DaopOzUEin92DlB2jWeSQ/XZoRCsUxSx7UTeTarbmo+1IEljaQovguy9oiM10XYa0UK34YQXzuxGTrF1r4FDZL1zj4K4LY2Fu8m04i+/cVqqU9zPxjAHPHVvs/XCOXljT7mvQdjdMOdSe1px9c3M5rh5hTcEohZzUqCNMHnKrevoNIPJ/GpuVGT3c4eq/2VyxK5vtwAcbkQf1lGuR+nbbMXxJa90GrXEWeLT4RP7cx2exd+mMDKY1MVI9R2g3sSt1Lw8Ghi6ZHrl8xva2NUxxl97GhWRzpUhOB05QS0ZrMzk138E9lL9wRZL9aET2A20PMaR+ap/Pmj0d4oGPyoL76ta2bzcRA/+e/M3RFOqW1JeMLJ+rakB+CHEYxNa0ukx83iabV4gamHg1i6kvj0v/KwSyWlBdOm4boepI7lPbXsLSl5W1RK10J6qZ8q+7jnfLiJrCp7Xgk6jP5KIGlM5uX3VSeXo7mKWu6xIcmBNQ9ZJNY/da0PYLmhSzes/jECopuZG3Ks5cOmTyoN+rVBvJYWFqiK/Jp7QLrEwPK5j7KNnO0U5Qp8pyyHZ1Y4/BoAqtfHfwDNOkgTtMfmVqQSXgog4LJNd7q0fK+FkLz0SiSY4OIP7YTr1ufLiyozmWNU57W+/jMHUpbaWW7weGxCczML2LudQIjCnEPIPkuCOfA7qHM5GHCXnwJ6H/lPz7IQ8urdnOF4vkVqs3OYrdXyorW4g/3OCj0dffmg1FFblq0QVKRWbtWrB4y9TFgIsWsy+I54wE+urnE0daiun+p2MN0aw/Fn+4SXq8Dx+Rh6iEiDpG2Qx6mLH0fql93SYcvUym141llubyr0tP0jKdDbb/TRiWvpxz45j5BgMnD1JG9Qx6aKVXXd5gq6XZYv8DqmNhcN8Dd2PUyKa5NUteV6Jf44MEhwORh6vKeIQ/NlCq1p6ip/nQopjzxQJb5U45aqulhwmodaGoN/2wTASYPE4A9Qx6Kw5qdP4epwraHdzidH1GkD1ezq20ezReEX8JAX8TubW4Z//aHAJOHCbeeIY/6Hao3bSrUbvPIjkX0jYdMzfR1WPuawdPoKLISplxfBfBDoUOAycPUZT1DHqY6tXWoEMgAJncbfUk856k4s40i+7XJX8FzRvxAPyHA5GHqzf/9439A/922tpiq1d6hCCz1Oo0d3+HvrpB7k8b6eZuSUHut4Kd7EAEmD+oU3WVb9fXw5l9BmXDKCDwcBJg8qK9pvUY7C+MoL04ZgQeAAJMHdXJQS/IpP04ZgT5HgMmDOpjJg5DglBGQQoDJg2Bi8iAkOGUEpBBg8iCYmDwICU4ZASkEmDwIJiYPQoJTRkAKASYPgonJg5DglBGQQoDJg2Bi8iAkOGUEpBBg8iCYmDwICU4ZASkEmDwIJiYPQoJTRkAKASYPgonJg5DglBGQQoDJg2Bi8iAkOGUEpBBg8iCY+o08xJ4g1TZWwtaqqIY0JAB1KaedRYDJg/DtJ/KonmDp2WB7+3iIPTxEHBfew4PeEE6bEGDyIECayKMluhvd1+uptoNYYiFvCmHpr9JKBDnePcwfeA/gKSYPrZOr+9N6zJZY1Iik1ql3oPZ9D0tv0pj5aB8BznPZFInsxQZKLkGfZPMuf04hNpTCzk/ZJ3r8vvoljnZPUKrYTOnqd6iUDrF50Obuaz0OQxDVY/LQUKQ4r+pWhBmcBjT4rDuJAiepGw+NbwXzoioDPToqH7m+fo3i8YUaGtO6ogCFchhbQbGjmNhVIODzpk2f4o8TSL6cRlYEYpqfRuq5Ec1t8otDNL+AqxTW7Jg8lJ4zIswr5OEW67Xt3s4ja4pOR0Gx28pWCawcQVy67hRdLgI38upYKIe2GuzzYRN5mPesNY4HMbV12faUz2ftQvUYk4foLorxqg3o+4jBSrFih1/M4uBX++9M8cOIGmbyXDIvU5tdt1wU0seTTgWSkqxvULfZkscgEq9XcBpAXwRV1V7Ph8lDcEcubeg7nmRQaI4x2+u9WDvBnAie/ER+akGxcGNRuZCWNK2byoV8B3WNPLJHVVR/XOD0+ALlG/fYwb3+CnSjfkweuMLmCyPA9eRu+Oa6pOz1Ep+WIt0rhCPz5hVX8FRIZtN7CDV9EHmcyTSa73FCQIo8qqUT7HzUonxvmawD1Qvklrc7+6Wu36F8nkfpxqkZ/q8Jc6QyKMTACKVSUERy87rjuxYLNxqBdEjL+ommp5nGQZjZg8nD/2BpetKZPConWH05iNjQb5hc2MbR8Z76eyyD0/NtTD2KIOYnGHNTJex/VnHw16A2pRjF0jcb85p9Bs5XyJKg6DoCNEcKUv2YQXZ+Eeu5C1TtrBT1KkpnFyi3NU3KY0lMWVymH7UfeZwen6j/f69gUtPvpJb39fOFH074Gkrl7FdnWHv6KpNHYN1jTx4/91RyEDb+H6byhC/BK0PMl/5ymbKQP2y0SsQW8vKPut4pIr6PasQ0iKkvwZhLoeA2iNTCNnIfUkr+iWUrh607nM4NqOW3066f20gpRJBBwbbN1w19ZlgWjH4U59ysPoUF9f7kp0vbknr+gok8KsdrmJn4TQkKHosKhWkGO2fhm7Z2C3Nr8tC8FGPRAVjZuw1lWwSWmvp6FYXdDRTaFm+rOPhTG2DRQcwdO30ZvUFY3k3pL01gxKFIMgOY+1truO61ajGw63lkFYkhgtTnNoiLyni1jYokBMUPv6mk5VFqrOyqZBibP5EsqfG2BumHpKA20kLJxwumkUdibBTxCUEWV6jeCOVpHuvTQsodQHL+0Nn3pbFZD/aXBXlo0dDF18xGe2+Qh0lTf1tFpZTH0W4Gk4/FgDddawdeRbQ/QfFngMSRe4uEaN9QAtmj4L40itXGpFAsfUpoko2F0xkpIKMj8k5dFjjqAzq9J0kePvQdWrmkmI15ICqjyncorE4g+TwR3P/coXflrUYe8fQ2ys3TSTJJRyNIrF4YVecjSwRayaO4og6saAR24qmVpr7wMYHk61ms724j+9x9Dm5Zm46fvEPhQ0KROOLPMjgK1KavWm0MScyw4sTnTlqcjvRBH53FURs6Dz0f2alPZU/Xdxh1lQTeh5QjmfM93naFg+VtFG1WDJNJOhZNYtM8Xb/HGoalqBby0InB9ovo9uWi+XVAkkegSFLdgpU41CreoXyWN5SfevjKAbQushPTMU3fIC0xWAOhv+yS5GEpNVpn3XqWyCNqMQ1rvTuUZwx83HVAoWxggJVuIg/S3AuRPoNCs1gnCtbEPqFgs/bEpAHai+QBoHKI7DMxrRpA8t1eq+gaELj6oLaa+ulmT3vpTrYapMSUVSYXljUdkkd9h1KfB0Ae0NsYgb/pmWzPhf++RvIwibQxmzUSBjPbkUOPk4fos9sLrE6ogyj+bBGnPvRuzl1vLHyztEbp+g4rqcQ55+ar3qYtblJjc+5Nv2lgCUJsuhSOn3co/72BpeUNezd0aiPp/MLRsK7UspE8TFKFndlOn9bYvkAhIA8BtW5REs5hGRRs5sC+esVxygKUP09oitRGfUfl6xpmXk9jKactzPp1gs35acy8t3/ZdfKQsYCYPg6e9R0CiK8Ztd6+FKZCahXu4JqvSQCpZ2vLWUazsGnGAKvONZOH33Za5duH5xrJwyROW7pp1y+xrihDnTwTAyaPH4fB73tBHSl2y1J8JCKw1L7TfR5T3SoRtfLGNOk7zC9ncQXj8yeonK8hKUzk795ifHoDxV9XKCwnEXuxgbJFPfSyzHlZ3CdO2UuNqiVErPdw+tOJykYqdXoW6L61pfJFMzUrlrZFS78YA6MIYu8PWxTdzm18WFcbyQPGi91qaTE7VdnpOwR4QZKHIf4LHYvb0nE/XVf6lNSkgODMc/ogs1Ismvw7DIyFw9iEqt0npy9tQ5/a8axaPzsdxbdF9WtqKwkaqOj6juZ7FYkzjZzLEgAyPceXg3TWM+rX8SMFqwGMPJuwNdFTG4VOLEi/oo63rQsFNJEHADLVmkX52iVyf5E3ppsZNkjyaPQw7chLSytSFQkkic1S+72gSwPRVv8OwznNrO+4wPqf24pkQc/q04qbPDaX15D7buPnoi+tb5wCWbVCV66apzja7mPjrl6jxhoaa0W5VYk9dk5bjjBp55RXvzQWSb6y8APpseZ0uzqt5CGWqH9bQ0qsWxn6DcnnoxiODiL14RA5cqdu/nI1tCJI8gCMfS8yOHX5MjZUw8MPdS8M1XQqv5mOQwG3h+oS+egIsl+1QV+vorirOacpRGU92FWdUgo5WXdRkBLU3dms9FH7AJA4Xr/G0dwohqdlrE5UTue3aHRAtu1LtC/ru1yTV2+9ilNarjD2Fgf9su1i24jZZ2BJHsrtYuv+X5conF2iojgx0csTgbN7crDkYV/1AK/oCk5BIME4B9W+b6hrg6JCTE4g8SiC4ZcZzL108u/QMLabotg0mczClnoq8zO3F1gXCx21Oo0MDWJ8QdIVm5Tpjh8Oc2G9e1w5yiA5FIHYhnDq/SKybyaU/hFT4+GXawEsq+jdtgdZM3vyaC6FXh5b/w56IITkgUbdip2liVoonRIBH+dR+nUHmKZIlvobDWNL865ToefaXhuSisya2ARHfBQ8WJhoOhUYNk7tuY9rtSsUdtewJPYvFf8ft3HqZ63MfdS1R8uQJg9DCz3hvJN2/Qqbf4iv60Qg+oP7wu10XpMIxJTC45e/oY7CvLq8iM2vrWtmBIZxZcpirZwkjHV9R0PGTj/IFd46X6cn5a7RfqfBSGVyZfJdvY6AJHmYlo/biK2GhcE0CJWBEg5Pvcb6e9E5mLpY24RYiL+xoSZToGnvELtFV6o1xM75zlSOxaGQDAQxWUo0Fvd7OkUSEelKPD3MN/crAo7kUfupbSCTW8S4tnw89mQWO4qDj8uW/WFDjBygNMJrXY8i0SCTg1Gj4tUwc9v7k2jTPRt/DtfSyVIQ+B6sou5ic+UAN0tybQzfEAYEHMhDSBsWUgRJEzYSSBgabVlH08C3X7dj+aRx8scGxqMRjLwxWS+ERWNeXck7PL2BkpOe4baKahsrbKE5vbmbXY0qux6V1DbZmjddM+Ab+hUBB/Lo1ybbtKuJPFwtFzbZlL+kMSy09mPqvhUjilY/hdW/r+7FW1H1IwnGXwXarnH20pINCHz6QSDA5EHdHBB5KNnVqiifizUcFyi3E6me6uYxVQjE7OTn8Xn1dnWqxcThC7wH8RCTB3VzkORBeXYxLe/PYvL/TrzvtKXVuXa2gsn3+x3bsqCL0HDRASHA5EFA9hl5ULM4ZQQ6hQCTByHL5EFIcMoISCHA5EEwMXkQEpwyAlIIMHkQTEwehASnjIAUAkweBBOTByHBKSMghQCTB8HE5EFIcMoISCHA5EEwMXkQEpwyAlIIMHkQTF0ij8rXDcy9TiNLmx5TfThlBHocASYP6iA9HIK6nsevezplJ5XqWwiKMnnPTCnM+KaeQYDJg7rCtNmRWBh3L+TRVGZo9wYlDDl9UAgweVB3/9rWd1EX5PHPf2foSgfTOxQ/TmBYbAuYXkOxnRW1HawlZ80IWCHA5EGo1K4ayGNuYYmucMoIMAIWCDB5mEBRdgDT9itZ+Q+ThwkaPmQEWhBg8jBB0s/kUbupomYVuNzUfttDsZFzF7YWsK0PX+gJBJg8TN1wv+RRRWFrr/N6DhGPZDmB4XQbQYyUuL6DmNptinViwo4PHx4CTB6mPr9X8lBixVgHfjJVqc1Dbe/UtjcGApQtDocGMMkE0maf9M/jTB6mvrxP8lDioKT3IB0YzlRP2cNAtyQUgbK/ZvA0OorsmU3oS9mK9eJ9tSsUcxt6HJfN3AXKbP1y7CkmDxM890ceatxXI9C1qRJBHWqbIduFebAqpnJ+guIvqyt0TgRCH0BsaBoHHQr9SSXdZ0ohTeOPU5hTgkBlMPNsALHoKN7tXt7L3rP32d6gymLyMCF5f+QhItQNYOmbqfBAD70P8mourZqq3UI/aLupP13I98Wgqh68VTasbtmrVY9dy1M1u1eTyYOQqVfx4vd/4ff//hd+//0ZFpY6aKrttL5DCz/59MMFtc4lFWSjhdlwDezUR9Hj9IDkNpHw9PCg/gJxuYAe+stMHtSFTa7inXRPr3xJIdYxfQdF9xvB6jk1ziWtHWJO82+Rabcet1aanFzK79Ll8lZSlbb+2EbZsg7q9FJIpPJEbJlRX55k8qBuvbeFcR3Wd9BiOxGUS9av4yyjxdAdwWqRAHFI/ZThkF13LlF83whiDtJWcVVEy4sg1m9BzgIAncmDQOzwkvxa5RIFRZv/VgndOf5mEZu5PEqVYC0XFCzbaUBQkyktfUqoA2Qog4IU4VxhRwlmLkk2VFAvpUSAghgW8rY1M2IYuwR4t82hfy8weVDfdog8qufbmHsxiFh0EInXs1h6n8JINI3s1iLm0r8hLhbF/bmBYpUq0l6qBst2WRV8e4WCEm9YBKY6xOorTd/xchEHdP7MOcIdlZP6HFLHMbOkKUUeEWS/ttc3/fY0kwf1aNDkUb9C7p2IUTuA8eUT3WegWd9R/bqIpAgiHoQjF0giiMApULfxNdVIQ9N3mK1NbmK6noeDyE/Q9mRq7m9J8pDRB/VkWztUKSYPAtb8MrW7n8dtHkuKn0Czmc9a31H6pCru4nMnbZo/88gqRODBOnC+ghHlmQQ2SwSGREp42SobXfJokH6EBNTm/9klqlJTLrVeCokTaTJ5uHSW9WUmD8KFBoP2Qvn+yojg0GnhYBRBosUXwsa/QzHdCilgGgftTF90i1EKOUnXVe/6Dg0wXezPoEAYekhr31aQeq4GA08Gks7iyAN2uuQk+luSPOLL9roRD03vm1uZPKgrAyIPYcaMixdyaBZHt5S5ltr5d+iDvk3HMT0f2QF9jVxa1r+jqS2ey2p6vss//ZCHE8l0uTldKZ7Jg2APhDyEZKEOxrjF18x2Pcu3RW+mUqpzc+pVGvDo39FQnE4eHqZIDRl09wf5qih6Hou+otqZSSa0ymFqTMApkwcBGgR56NMPa8386XwEVutZyp8nVFNpu9MWvQ2SkodOWh71HQKzkJMHdKzkpy2+p7L0jvVZyuRBHWp+mfwqTPU8rL7GNvoOGM5K8b/24WHaTjU3Un1Ay5GHb32HKFEvq009jVH7+z3SpTR58pg7CtYn534bHHxpTB6EqT7w1WmHr6+M/iW3II+f20hFW/fvqJ2JZe6izGSjtaNygvU3acws76EkdCf1a5xuZTDzZhabx9dU68ZUH9AZnLpaHtrQd4hSlfaIessRVWNF1fYU27WwmJ/3aG2BpJOYIRX6kM5aGt1fJ5g8qD+DIA99IVXri6bMsf9skiyUHbrEAGwy6dYvsDqRwWnlAuvPI4in3+LdizQ2z69RPlvEuCCaH1RxU6oPCAvyMt2mHDroOxRLyPyhsxREePl02+62tQW4xg45xzmsMyosqB+TmLT3bTPQ/fubyYP61izG+p22ACCfjafzjT4bLfqOah6rE8Kk27q9X+14Fqkt4blJTl+aVCLISZFSWslJbUYeS8LhLCrhNq5LSc33qoNqKuc8gdLd4B0GHkHbq6m+MM6WAI3Vxu374PQqCv7rxeRB2Okiv/ql8TVtEXnVr3Dw16giTRiepULfoQ3S2hUKW29Vr9JHE1j/1jpIi+vT2BGSBUkSuhen2Pd0Eeu2oSmNl911fk6SQ7RxiqPsPvZiAyWXaQ/pS56uyi77J6B7KL3Zx4xCtjaS3O0h3llNKXuoCd2sCpMHod9EHu2a5SrHK5h8rDqLDT9W17AMP9J+v5jG+t8SHpHaatfJLzY6Dqq7KZUe1N/XkFAGhqGHqfw9i8SjNHI/TRlaHhpL1V1JyvL53jkpPE2FX07rZkDXOJoTH4EIEsv9sfFR0KgzeeiIkmu3NsedP9GvtHVwe63sXh57sYjTH1VUPeyLqRKB3RTFplY0/Xq17bI/KkWriyD+OIHk4wEMv8jgSMYztZ5HVvlih9TS0gDdHUpbaXU3sZZtCAeR+njR5pKBhsL66geTh96dhsivOA4934CXpR56NhYHLfoOi3taT2kKPa+KOqFsVRzVJAf27RWKx3mUfnkwQxJBNSuAWxsRnjM3lzjdXdM3QF7fPUGpdUYZnvbcQ02ZPEwg6/t4KuK8hMXC9Kz9oZ1/h/0TyhWyhuj6Dpf7TZdJEeim9DQ94umw+EFskDOAuWMPhOOpBL45DAgweZh7SVegqVOXQAafjX+HuVjLY80a4ktxS+1w28zYsmCXk7U8skKykVCquuTEl0OOAJNHUwcWV1UlmTJ1CWDwWfp3NJVp9VNdU2FjBbB6oOmcajIeCTzGilqvEWS/stTRBPmD+8nk0dzl+o7aQvoYQLvWhMLCgOV6luZiW363Gx9WbA0gnKCClBA0bJp9WFrqziceBAJMHhbdLKQFZVm90H20ucNXpXiCUrcCJInAT0MRjH+6tGil11N3OJ0faRsPr6Xy/b2LAJOHZd9oMV4VxanVpj6WD/XmSYVA2g8RqTiPjWVwyhaI3uznLtSKycMOdN1TVJ2+jK+G2N7/cx9zrxb9D/yfe5h5vYZi8+ZGdtjx+QeBAJOHUzfXr3E0LzYxVgiGQV0AAAEISURBVAkkOX+IiovbtlN2fI0R6CcEmDwkerOc09aiCDfmZysoePASlcieb2EEQokAk4dst1UvsPN+Asnnb3Eg48Itmy/fxwiEFAEmj5B2HFebEeg2Akwe3e4BLp8RCCkCTB4h7TiuNiPQbQSYPLrdA1w+IxBSBJg8QtpxXG1GoNsIMHl0uwe4fEYgpAgweYS047jajEC3EWDy6HYPcPmMQEgRYPIIacdxtRmBbiPA5NHtHuDyGYGQIsDkEdKO42ozAt1GgMmj2z3A5TMCIUWAySOkHcfVZgS6jQCTR7d7gMtnBEKKAJNHSDuOq80IdBsBJo9u9wCXzwiEFAEmj5B2HFebEeg2Av8PbqtB8lBZhBwAAAAASUVORK5CYII=;" vertex="1" parent="1">
          <mxGeometry x="42.17" y="74" width="145.66" height="86" as="geometry" />
        </mxCell>
        <mxCell id="x1jIhV6qrmOZlEyX5eO0-30" value="" style="shape=image;verticalLabelPosition=bottom;labelBackgroundColor=default;verticalAlign=top;aspect=fixed;imageAspect=0;image=data:image/png,iVBORw0KGgoAAAANSUhEUgAAAQgAAACWCAYAAAAi7RZ4AAAgAElEQVR4Ae1d70sbT7d//qO8inlj8MXXXh4sFPvCJ3D7TaGg8EAKxUDRF99ryxcqggSJ3ovyWBALgkWxKFTyQhAqgmJBkoISKAaKCsWAsCAYCHwus7uzu4m7s7M/kmzMKRQ3O7Mzs5/Z/eyZc86c8w/QP0KAECAEHBD4h8N5Ok0IEAKEAIgg6CEgBAgBRwSIIByhoQJCgBAggqBngBAgBBwRIIJwhIYKCAFCgAiCngFCgBBwRIAIwhEaKiAECAEiCHoGCAFCwBEBIghHaKiAECAEiCDoGSAECAFHBIggHKGhAkKAECCCCPIMKOfYnhlD+uV77FeDNETXEgLRRIAIwue8XBXeIz0QQyIeQ/LFMko1nw3RZYRAhBEggvA6OfUbHM6lkIwzcuhDeu4A1brXRqg+IdAdCBBBeJmn+iX2/x5WpQYmOaTmiyDBwQuAVLfbECCCkJ6xe5TmTXJI/rUHRfpaqkgIdCcCRBCS86bsTerLihgSz3I4uZO8kKoRAl2MABGEzOTd7mFKV0gyvcPUXvfLDjVFQS2A7qR2G+x6GdipTucRIIJwnQO2tBgy9A6JV+uoBHixXLtrQ4WrnSwGR3Io+ZaCtOXW4OQWrrocizbA3dVdEEG4Td/tLiZUi4Vm0hzfuXG7ItLlVzsZJAcy2L4OOMz6JbazfUhmiSQCIhnpy4kgXKanupMxpYd4Btu/XS4IWly/wcnmNCbe5lD4eR+0tYbra6c5pOJ9mD0Mqd27Y+SfkTWnAWS3H7dFFArnuHKS3ur3uDrdQuE0GstYIgjhhCrY/0uTHJhZM/FyHRVh/eCFTBmq9sX6G5jGSVh2VP1l9mJ9USpFlCriB1VT3j4OvUzw2ZNo4TRnzO/gSArpt9NYXFrA4kwW6ZfDGFSl1WEs/giJxCWGJKpCBCFCB0XkLcuLxNyxsHYYhY0SyyT2xe+ndJflFWaiHcZKWfKSs2U8V+99GocikqpfYOOVZtkhb1IJbC0EYXwIrM/YQAr5w+gsY4kgRHP6ewvjlsnLfLkU1Q6n7O4ca6/7kRj4A+Nr5+E4YnE9yuSutO9GeUVXzEpITUohq34VRzfbgE84KHeuFSeCGPgDozNbKIf0QQjrBokgREg2EUS3KiivNtPqCzxRkH36LrDxUt9nMl8UIaSVKXuYYkT6bBllsmqI8VIJIoONnwqqlSJOTi9QjbDJmAhCNJ3XW8hYJIjuJIhzrDxjL3sWhVvRzVrKLMQo5/PBdTVDWDmztEOHDxHQCaLlyu6HPfs6QwQhgq1JHOxKgqisI81ITmKpwKGoHU7rijR5q83VlzH1mucr57wZ+muHABGEHSpdeq4FBFE928XGUg75uQWs7RTNnaB1BeXCKvIz08h/2kIppPgS1a+6mVa0VKjfoHx0jBP9//aMrn/453tsGOfPzbHaTeePBc0V/d9buLIrp3MaAkQQj+hJCJMg7i6wMdmP5ItJ5Dd3cbiTw+gAiyWxgJKiOR0Nvl5G4WgXa2+HkRjIoBCCz8XJnISDV9N92mrX4y4WFWNZ4mL1eESPh69b4QRxzT4IOUyM9GvSGlNSvlvFoYtZ2VefAS6iJYYIvKYXx/cSQ/c6TM0fQ7Eo8bhYnhzoQ3LmQLVY1M6WVeJgL6nv/ox7usH2G40g8qfGSfEBt3jEYx4dqrhJeMyfl2aTFMOlGf9/XSQeMQqtK1WfqSGkRvqQessI4QbKLVNY7iL/og+JeD8mNi/CsV6FcBdEECIQQyII1ZnIZg+H6fOQxsYvNhCu7NNeajkFoegG+Evbh8UfonpmmR/9g3Y1V4bGIE1GZrfA711MvUwhHdr/MWz8tHYQkWP9mbKNJWKQc3Qcz4ggRM9NKAShvTh27s2GrwEzD+rjKH/SolUNTu6GsBGKE4S8srG0xL5i3pSa2tB9SCsi7B9rmVLExqcDh7m1fCDC9KINgCURhAi8UAhCQeWoiKsH3ogefQ1E43Qq4/4J0ntIgozJJIjgSyOnG2r9+WrZVNb6X94c46Tszxuy8jmlW5BikQgrQAQheuZCIQiHDoyX1+ta36E9u9OG4lBSgqjuGp6jdhKPXRfmucdAEAoOZ0Na5rz2t2/HXHbGkBBZnkzgW3pEBCGCt4UE4X+tLxpwc5m3JUawMZkEEVx30nwfj+R3/QalnVUsftp1dKluIIgIhDUkghA9ey0kCEP/4MGBSTRU+zJOEHKWBf/6B9b7Jbb/7dFiYh10XUHlNCTxXvXdiJ4VQ+blb6hDEoT1CYngMfdC1N2tfa+tf5/jhOkhjBgALmv9n+vIMCWlFZK7CxTms5iYWccJc6LSHatm301isXDeYD41L/NiWRCMiVkY3riJzJyMhuR3jJoD7QkrhkHA7HnK7sLOF86qg0h/vrAi1JFjkiBEsBtreAlnI6d2KuvI8AQ7S/rGJ0u7duJ4+eMQkrPHFls4025nsFG5wf7fMSRG3uPDZBr5b5dQKruY+mcfZo/s4gfcoJCVNJla9A+NY9JC7j3/6OJCXTvArEqkGRTsnnwnfHrovObV2o/Uy0ls2AYDusfhjDZfiTg3fXcWICIIEf6WF9mv45L1i8D3KfDdlazNBz4D11sYb/ai/LWOjE4Ymmckjwp1qcViEDg18aWM69fIuNfG5YgahWpgGoeG9OMAGJe2LCZbh5q9e1oNfjyE/Hc7Mgdwd4BZ/WPyfM76gegcZEQQIuzrimFyYi/z/OKiqLZtGd8LMTp/rO1l+MUIYBgTk9oW7FGLGKmU1zHxpB8TXxvjKlT3p7GoPlT6ksHQW9yjsreKxU29bZsRGIpHN4WXsocP6sOZwoYeNouNZ/xJCounDg+0pT+jH90j1FJEhxYEtJigaaz8aNp6r3vbsucsObaMshshW9ps5SERhAu6bML4/+X/eCcI1M6xNtanBoBRQ4rxiEGWFH5q6DHmk/9kDCvfBfZz/Suf5EsVl7GrxdycOpBDyeLmbXfp1Z6eb/TJMNIj/Ug+dRKFH15dmtccrBqXJw/r0Zl7VDazami5wZExTM0tYPZtCkMqOfch/SEMB7nwUCaCcMGSkwP764sg9PZrt5con11CaXaYurtUd1KWf7nnmeBfaW8+CgoKk4zkJJWHtRvVmiAzHhM6rgx12dBlXkBHtxc43FzQ4lGymJSbuyhfu0tq7QaOCMIF8bAIwqUbqWLtKy3p9GRpsXY0rW7FdlU0Wq7xdKjHr2xUrHpqgSpHFAEiCJeJiQ5B6GZIQ//gMnBrcf0cKyMhR8k22ueJhdKG7sIoooOuR4AIwmUKI0MQuhky6dN5hi1PkqFsIW8CTNeLREXr3jQ6+hkQASIIFwAjQxCqV6eTv4PLTajF9ziZG1JzbbiaLGWa09s8nOmjZMbSeHVfRSIIlzmLDEHU76HcBlRi3RWRH4kZwWlcbt21uPY9h+fxYeQlzKCujVGFSCJABOEyLZEhCJdxSherJNGH8Z1GXwvp63lF1aFrGPnvTfZ8Xk5/HwUCRBCiafy9hf+y+EG8+p//FdXunjKWnOdtFtu+8wheovAui7WzgBJN9yDWsyMlghBNPXcf1knC92YtUR9URghEGAEiCNHktHC7t6hbKiMEooIAEYRoJoggROhQWQ8gQAQhmmQiCBE6VNYDCBBBiCaZCEKEDpX1AAJEEKJJJoIQoUNlPYAAEYRokokgROhQWQ8gQAQhmmQiCBE6VNYDCBBBiCaZCEKEDpX1AAJEEKJJJoIQoUNlPYAAEYRokokgROhQWQ8gQAQhmmQiCBE6VNYDCBBBiCaZCEKEDpX1AAJEEKJJfmwEwWJKKAF2YNYUKBEJxy6aNioLDwEiCBGWTQTxIMmN6NqolSnHWHzRHywOBIsBwfJkUAyIqM1uy8ZDBCGAVtmbNHJiJOJmQhnBJdEs0iNJpeaLlnR+/oaqZtqiKFL+wOvCq4ggBJPG09ZpUaVyOHFJPCNoSqqo9nMXi++ymPrknClLqiFrJZ6x6dU6KiGN/+pLBomBDLavrR118XH9Aoc7x6hUHZZf9XtUKwfY2A8YhasLISKCcJw0M/GtShBuqesc25Et4MlntExeo5vhPIzqyxwfls+4Xb9B+ehcSxPoNHQeRn9kGeWQSMepq7acN/KSxpB8mkL69STyLJnN3CQyL82sV+NfBVnP2jLQ9ndCBOGEOU9Zp0eTan1KuSLylvB2PNGv0/CkzqvJYmNISpMbz8IVgxtBtSyMvtSNhVzJQhDWGKTmcT8mNi8CL89CHnVbmiOCcIBZKWRN/cOzHErNKfMcrgtymufGHHw1jf3fQVrSri1/HNJS7p1JtmUhRdf0fkyKeNaqZDyS4w2rmiNB9CP1dhknIcxFWENtdztEELaIX2LjlZm0tytjUdaOtVTyz+SXATz3ZyIul96P62gmCl0e2VoniPyhAuXXOU6OznF1654r1fbReWQnfROEUjnG9ic9+ag1/bxyjsLSVmu/uPV7XJ0VUbltzWwwTf1zLu536TqbW2C85OPkGboTjFRkoC0vazhN7qKrKYITxKnMTfdWHe8EUT3Gyut+NZ39+PwWDo92td8jOZycbWHiSQwJP/kjpXFXsP93vy7+D2Pxh4PmWbq9popcAacSRLdq6u9xOKNJQK5LBeP29dyf8Rik0/vVj3W9SZdn9SaCMJ6C5gNvBHG9qxEAM3H9sjTFTGlvTJFc+gGzNCF/2KjMS/jMVWnfH0tEO6yTTz8mvoZjSVD7YpLVpxzycwtYK5xDcdL+1xVUTs9xFUjnUcTiAJsP8VKh9quIk6Nj7f+3ZYzrUlNmac84X/olImDT0pP/bo9oV5wlgnCcJnmC0J1tEvE+2Jl7zPVrDPJfLcdxCQoU7P/VZ7zEs0eiB1jQjE3R1U5GTXCbiIdMDiqx9iMzv4XCx4w69tSSndPSPU5m9XsLQnzXW8ioL3sOJZv71E7dNJC6qbE3iZ6dc7OmlOa1+unPF449Rb7AQhDVo1VMjf1hPAeptzlsn/aeeZPPmSRBMJFVf3AdlF4mQTR9tdgX8ds6FpldeWkdhbNL1Jy+nnxUbn/Vr+wxytchkkPhPVLspRpIIX8Y4gOhLln6MPtNX6Ub7ts2L2+9iLz65Y8h8yWA9ML7eLOFqhuWenn54x8a6XpcHlZ3NMJLzB1L9tRYrUGK4dJMgL+lig9tiE4QqZFhJMcYIVxCuWUKyyLWJtlytg/puQOxb0jjbT2aX3IEUV7WXp54DE5fClsF1/UePrwaQ36nqGqFr44WMDoQQ/LFAkqR2fRzj9LHlPrFSL7I4TBkk5ZqLrUo8SqfU7r0Y+OZyZV+8SF5xyabR9F4abO7kgThQ/+g98uVoQkPZGQO+R6llTGkX6bC+z974F1hqhNEMruFq+aPFzfnxmNIrZybQ++RIymCMF5+xwfX7gHTnG4YIx9aXHL5C5KcPY6I4wkXtUOWHNQHSDOXmksu03xqd//Gix2fxmEAHYTRjuwypbpr6B/MsUq+AT6kFcmW21jtEvtLWyg7fLS4OTcRT2PDqntr4wg71ZUEQXCFFxO/cyg1Mywbuc7AbM1qehyaysTUJ3N9ajy8cRsRu1MoVA+Qf8GWUH1If9h9+BXxPa57XJ0WTYWjkeuzDw93hjLdir7+l/7y2w/MeKAlCcJxeWjffONZThBRms/GEQb+ZeLjrpMJ3FnEGnAnCMvXJeHgsmsCaNU/3KPyZRLp19PYt0gQV1/GNBE74EsQOo5351gZ0/QsbAl04mMp6zYm48W10+MYJkPnZZxb+7ycKw5lLTylJV2/5FH/oPbXAwQB4x5j8LeU4jPTfX/dCcIiHThptI0liKuDDff172uxpcPnRBiWmhgSI7mQ9STmZixbM7Chf7CTLrzdjyGlSUkQdstDD/3xl8d17j202daq97hSlejrzi7V/B6ZErtr79MfqO4EYfmy2boc1y+w9lITjW0ffH1cNeUG5c/MjNiPiZ0AGnrW3q+D8LdFc/xYUBTdH8BWacXref0rXF4AhmTVpH+ofl/F1NtJLBb0zUK/j7ExN4mpGecH2iAIGcuCRUL0rH9gGHzPaRKhLyUlW54y12bdFyOEv56tGKc53aQpePmtBOH3Pr0+LxGp704QMNfGDy0YVsciq/7Benc32P+ga6mfDmF85dhck1urSR+bX2Km83DbdSjdrKVi5XNatzSEp7k2tP1xO69DE+MGEba8jNG5Y1TPVpFm/icf3mN0ch3l35coLaWReLWOK8u4+aHRl8TDbL88ZC1pFga2P0H0zyAjh+Wn6FreRyetGNWvuplWNXEv2PqNmBjFkJg5iIhyXYxsWKUSBAGAmzmtYnftAoW/udchkyCs+geH4dUVnMwNITGQxsqZXx8GU/nJCCK5VHToLMBpvtFJlSTS2KgEaEu/1HiR7JR5Fv8Hk4SZ09SYpjXnjk960Jfa0bRGYE46gx8L2ldRQhw29A/NddWlZRYFl/0uhlWqFfMQHHb3FlSs+jD0YszR/4XfI1Nih+mY5z64zteQIwgAyo9VZNg+i4E/kH45jMF4PzIfD1Dgnn/ND5jTvXFRe2AS+y4Pn1MT5rboHE58tuHUNj+vbZXWl06+vo68Je2v8VWPP/R/MD04rfqHc6z9taVKCPxaYwlwW8TG0ioKPx1I1ti27W4uNRSa1uWIHoVq1NU70tzzYVqvGu878r/0vTfjTo5p9QtzZ+8bGz+JyN9gsAFKE4TaDYuK/PsCpdMLVFU7vangsvOkqykKlGZ7vlWnEeUIPZzIuBQR1P59d6Btv44PIf9df7HrCso7ugen2o/9C60pgTMoyLpFgs+Lu8NV5ZMuBXLRuX6Dw9lhDE7KmHt5P10crxMAj7P5odCkG2MSL9+bM/K+wRoX7LXrnqu9EUTzfVksHM1fEGX/vSbmDkzjxEoSVoLYCdGluXlsgX836jqcLDheuqn9XNc2u8WZSJtC6kkMg69zmH0t8n/QX0Kn5YTDALhJ1VaxbL3m7hxrbHeuPqahgX6Mzku6FfP5l5Uerf1G7Lh6mEOaefk+TWFiZgH5d2Pq/LBl7ODrVZTEqpiI3U14wwlEEKbyZuxBAFNzzd305ePraeaVKRvpKLz79dTSyZz+4rKvu8cX1LEjLoUdFVH5fQ9Y9B22Clf9JRRZiGz7OtNjNUguj2osUAqTDB28Ce364EufMMjTrv22n6tdorSzqu8bWsDipy2c+Nnb0faBt67DAARh2Xlo9wX5tY7R+DBmvzVKCVoQ1RiSUXOUssHYJDlNCSsv4jc1xkyTSwvY+N6IBavFSDapLi/sFYKchA39Q1PTzj+5W7d9u87XyZZwn5becz+WRegx1PNMELVrPYZAQdt4xUSwxLNpbKs27MZoyKrY9uQPjM+sYvvbAbbnxzAYujtzC6eB2/jVFzhm4x4t0bceOFbFaaDJjGYJTuO0EUizMkhYiGyGwr7wjHxsJROb+p5OccmG6y48XUyVuwUBjwTBpAaL2K2/OOrDrxKFTagyfWu25gzTujBxLQHc6iDTsM/EQ2+WNhqjS5s+JM4OWfpGMgd/B9dRcA186EF32dhZQNxujbjlihxV0BHwSBA9hpvl5WYk6Krws4NHXWrFMPTOYhVgloI5bYv54OQ6KqJ1/52NJciuH6dzumeou8nSqQGb8xW2fIzB0TRocwmd6k4EiCBE8xYGQQC4+prFINOGj2gepUOqtjyDlW+XbfHK0/wswnH4gh5e0FnqEQFKZd2GABGEaMZCIgi1i5qCqzO25+AcV0EybIvGKyhTScLqCSuo61ykLYuIHJwRemwlRBCiGQ2TIET9tKnsam8a4/937D3ikj6+2ukyxmf2QoyX0aYbp258I0AEIYLukRGE6FapjBCwQ4AIwg4Vfo4IgiNBf3sUASII0cQTQYjQobIeQIAIQjTJRBAidKisBxAgghBNMhGECB0q6wEEiCBEk0wEIUKHynoAASII0SQTQYjQobIeQIAIQjTJRqRpbf+JL1drUfsOZdXv65h9m0WeB6p1qEenCYFWI0AEIUKYB0TRN6W1hSCMcHGMlHovBqJoOqis/QgQQYgw7wRBNPXZHKlLNFwqIwTCRoAIQoRo7dIIf892c87OL4pqh1R2j/InLW7GUHYVZWu4vpB6oGYIAVkEiCBckDJiXcRjWP5POwjCZUBUTAi0EQEiCBewHzNB1G4V1OySMbtgohaz2Jod2JUqMzSqEx4CRBAuWD5KgmDh3JdSGMwGyPOg5jENIY2iC/5U3FkEiCBc8G8vQSgobe62WO+gh7oLHBsCAItWNdCH8aC5Vl3mgIo7hwARhAv2bSUINVmPffIcl2FKF4caXYpF5f6ew/P4MPKnDlm+pEcWwYq1S5QL60YY/I3CecC8shG8R5chEUG4ANROglDzTLQyHYAen9IpgrYdFNWzY5R/25XwcyzxcB8SAVIp8pai9Jend0w+zWB2aQGLSzlMvehDIj6MDzt6pvUoDbhFYyGCcAG2fQSh5bk0k/e6DMxzsfcXWSlkNTOvW1RtPYjt8/liW2Jser51jxewrHAshuiD0HpGKr7eWVYRQbg8PO0jCJbqrw+LP1wG5LdYz7T1/OO5ZAuMUPQUB665Lx5REh0jh6pDQiAjE5q/XCWS4EemGhGEaCrqCl79+S/8+d//wp9/vsD8Ygv9IFqqf+BZ0DykO6wdYNaDi7mRhk+agETAd67sajOtSU3/1jKrPxyJmdFcnmwfttItZ4ggRDPV5Pbcyr0Y1a8ZJFqlf+D7O1iKRFm/h9OcnhLQPUO4CqGfPkTYd6SMpyuMISGQmnhi5IRdysmOjLt1nRJBiLBt227O1uofeH5P0UPfDEPlc0r7kg7kUJIilUts/5stSSQJpbnDKPzmJMckp/mi44jMnK0Pk1Y7XtSlBUQQoolrcTyIWvUCJdWM9h6jAzGMvlvARqGISjVck6GW39MlM9jdJUpqflWWu+MAK290/cPrBezz86fiRD+8n8yXSxGq0S2zfhCkCCKG/Pfo3k4YIyOCEKHYIoJQzrYw+6ofiXg/Um+nsTiTwVA8i/zmAmazfyAZ78PQX+soK6LByZbxL7s4+bD5VdSJQdc/WJW0biK10YZAPJcddUfqWedbkiBauezsCAZNnRJBNAHS8NP6wPjNzWltsH6JwgeWk7MPo0vHhtNNs/5B+b6A9EAMiTC8HVFEXn3ZPWjdz5YxpF6TwkbFegMuxxwvRwWfy/UNUgyTZAL+P72AIrU80salzgMnRiIIFRQiCNEzyx94/aEJ9LW4K2JRdbRptqHb6x8qnzVtenL2OJhvgaFozaBQFd2sWeZd/6Bfa4joOZTM5qSPaj+WkXmp5S9Nh/J3GocepDBDAmLzLUkQySVnXYX0jUe4IhGEaHLCIgiW8DbLvPBiSD1wJnLwf1DNnkzcn8S+h4f8we0YBCH70t6gkNWXGV6XCp77ejDajp7wQxAiIunozYTUORGECMiQCIL5CCTZV2lgGod3TR06+T8YL1tA5ymvX3WP/g8Nd2OM2cNypqGBzv7gvhyq3kVSguhahawk1EQQIqBCIQgmIWhf5KTNQ+e4/+LHgjc/BKf7MO5BUoIw+vWof2D9dzlBwMBKfokRaNnpNGcROk8EIZoM6wPjV0lpLBXsTWInczHY7b+4+jKm+SG0eYnhW//QQBABl0WiOWllmSFtyRPE7GG4JulW3p6ftokgRKiFQRBGG3Zit4P+AaZHX/LvPQRRQZhf9RxOXDX6AfQPDMfrLWRUha6ktNKMff0G5aCWC+v1Hq0YkHSUMsnbh5TVfM8R/00EIZog4+XWlgi+xElDZLchCPWFehj/oXbKYiywPtONZsbqMdbeZTG1tIsK02XUb3CymcPUu2lsHN3Y34nx0Nv033yFQP+gWhjmDsRkxfHy6YLcaSsGcINt7iAmcHsvzetKXGkv02agu+c3EYRorvgDr76sLp6ITu0Yu/8efm1U/cNfTRKCGsqNPYBN5tD6OVbGcjipnmPtJduK/B4fXmWxcXaDq9MFjDIy+WU3iCIWmU+FjAu0QWbN7tLaizNREMsyhku34OWyG2GUzhmbtRxJztzlGtgEHaUbdxgLEYQDMOpp65rUrw4CAPdpeD7X6NPwQP+gFLEyxsyhD2M91o6mkdlkLszcM1KXLhgBqQT2kIC0WzMfaNf1skGIjcsRNQrVq3VUXJYoXH/xfEV2S7kI/A6V3e5hSiVUB8K9O8AHO+muQ8NtdbdEECKEDa28JlL6WmKw9uuX2P97WJUKTA9Kpn/Qv9S1S5Q232vek0/GsPbj4Ze6vDaJbSYh8CWD4aPA4lguYE2Qpk/6xf25ipT68JvLnuq3aaSeZFG4FgHFysxt0K5E5NZUh8uZRyUzSz8MGHODw1k2jzGklh5HcBw3qIkgRAg1EURQm3f1aBnjTzWHqcGn2p6LwSf671eTWPsm4Rqsb8Me/+qgc7C7Hy4JvdmC2JmSJ+2JIfk0hfTTPgy+yuFQfJHWY72IvPrl7VILRgNu96hsZrWoUg9CzvUj8+k8mHdrQ1/R/kEEIZwfvo9BV0rNHQtrSxfe3ahh5xOvFnDyS4HiIXuWJg04LSccRsD0F6ovhuTLe3eJ8lERld8eTHichJp1Kg5D6orTtxc42Vk1gtau7Ryj8lC464pb8TtIIgghcub6XfWue7kOL3uXRE0/0D+IKhtlupbdh/acK9/cFI1GVx4Pyh+HKNmwR8y6oToRhMssGYFb1bW5hKnQpT2t2Mn/weViboY09A8u9a3FXPnmFoDWeo3sca2IPJNQJBSZsk1SvWggQAThNg/8xVIJIoZQvsAO/g9uQ4FuhvSrLNWsKUOh57DQNjkNIf/dw5LE9WapQhQQIIKQmIXyiqa5VpcZIXyBbf0fJMahvYgO5jeJ65k1RXUECvNLr0eBbjbhygyH6kQfASIImTkyQqFrDkxBzXil+T7b/ReuQwkjYa6aLi+G0c8Xrt25V7jHydxQSIFt3HujGu1HgGuMmvYAAAEUSURBVAhCEnP21Ve3bLOlRsBIT9XyMSq3kh23oppKEsHT5akOVCM5nPSYZr8VUxLVNokgpGdGT3qr6yIeBn6RbigaFa/3MPtmwf/Lfb2LqberKDfHt4jG3dEoQkKACMILkIZHpLbUGF3pHYcZLzBR3ceDABGE17ms3+BwjgWe1UgiPXeAqsseBa9dUH1CICoIEEH4nImrgr53gvnsv1hGyYM3pM8u6TJCoO0IEEEEgVw5x/bMGNIv32NfZr9CkL7oWkKgAwgQQXQAdOqSEOgWBIggumWmaJyEQAcQIILoAOjUJSHQLQgQQXTLTNE4CYEOIEAE0QHQqUtCoFsQIILolpmicRICHUCACKIDoFOXhEC3IPD/RZuORu7tKS4AAAAASUVORK5CYII=;" vertex="1" parent="1">
          <mxGeometry x="632.84" y="78" width="144.32" height="82" as="geometry" />
        </mxCell>
      </root>
    </mxGraphModel>
  </diagram>
</mxfile>
